<svg width="34" height="35" viewBox="0 0 34 35" fill="none" xmlns="http://www.w3.org/2000/svg">
<path fill-rule="evenodd" clip-rule="evenodd" d="M6 6.5C4.89543 6.5 4 7.39543 4 8.5V22.5C4 23.6046 4.89543 24.5 6 24.5H12V29.5H22V24.5H28C29.1046 24.5 30 23.6046 30 22.5V8.5C30 7.39543 29.1046 6.5 28 6.5H6ZM22 20.5H12H7C6.44772 20.5 6 20.0523 6 19.5V9.5C6 8.94772 6.44772 8.5 7 8.5H27C27.5523 8.5 28 8.94772 28 9.5V19.5C28 20.0523 27.5523 20.5 27 20.5H22ZM17 23.5C17.5523 23.5 18 23.0523 18 22.5C18 21.9477 17.5523 21.5 17 21.5C16.4477 21.5 16 21.9477 16 22.5C16 23.0523 16.4477 23.5 17 23.5Z" fill="#630000"/>
</svg>
