<svg width="34" height="35" viewBox="0 0 34 35" fill="none" xmlns="http://www.w3.org/2000/svg">
<path opacity="0.8" d="M11.6661 28.1662C17.5568 28.1662 22.3322 23.3908 22.3322 17.5001C22.3322 11.6094 17.5568 6.83398 11.6661 6.83398C5.77538 6.83398 1 11.6094 1 17.5001C1 23.3908 5.77538 28.1662 11.6661 28.1662Z" fill="#65FF93"/>
<path d="M22.3341 28.1662C28.2248 28.1662 33.0002 23.3908 33.0002 17.5001C33.0002 11.6094 28.2248 6.83398 22.3341 6.83398C16.4433 6.83398 11.668 11.6094 11.668 17.5001C11.668 23.3908 16.4433 28.1662 22.3341 28.1662Z" fill="#EFD77C"/>
<path d="M22.3338 17.4982C22.3338 13.5513 20.1885 10.1066 16.9999 8.26123C13.8131 10.1066 11.666 13.5496 11.666 17.4982C11.666 21.4468 13.8114 24.8898 16.9999 26.7352C20.1868 24.8898 22.3338 21.4468 22.3338 17.4982Z" fill="url(#paint0_linear_321_5511)"/>
<defs>
<linearGradient id="paint0_linear_321_5511" x1="11.4368" y1="17.4982" x2="22.4349" y2="17.4982" gradientUnits="userSpaceOnUse">
<stop stop-color="#FFD978"/>
<stop offset="1" stop-color="#8AFF98"/>
</linearGradient>
</defs>
</svg>
