<svg width="21" height="21" viewBox="0 0 21 21" fill="none" xmlns="http://www.w3.org/2000/svg">
<g clip-path="url(#clip0_71_1131)">
<path d="M5.38379 10.4496V14.0908C5.38379 15.6273 7.82432 16.8728 10.833 16.8728C13.8417 16.8728 16.2822 15.6273 16.2822 14.0908V10.4496" stroke="#7B7E80" stroke-width="1.39938" stroke-miterlimit="10"/>
<path d="M10.833 4.82407C10.9757 4.82407 11.1213 4.84926 11.2584 4.90243L19.2545 7.91111C19.4952 8.00347 19.4952 8.34492 19.2545 8.43448L11.2584 11.4432C11.1213 11.4935 10.9785 11.5215 10.833 11.5215C10.6875 11.5215 10.5447 11.4963 10.4076 11.4432L2.41431 8.43448C2.17362 8.34212 2.17362 8.00067 2.41431 7.91111L10.4104 4.90243C10.5475 4.85205 10.6903 4.82407 10.8358 4.82407M10.833 3.42468C10.5195 3.42468 10.2089 3.48066 9.91501 3.59261L1.92173 6.59849C1.26122 6.84758 0.833008 7.46331 0.833008 8.17139C0.833008 8.87948 1.26122 9.49521 1.92173 9.7443L9.91781 12.753C10.2117 12.8649 10.5195 12.9209 10.8358 12.9209C11.1521 12.9209 11.4599 12.8649 11.7538 12.753L19.7471 9.7443C20.4076 9.49521 20.8358 8.87948 20.8358 8.17139C20.8358 7.46331 20.4076 6.84758 19.7471 6.59849L11.751 3.59261C11.4571 3.48066 11.1493 3.42468 10.833 3.42468Z" fill="#7B7E80"/>
<path d="M1.8289 12.7838L1.06764 14.6198C0.77097 15.3307 1.29434 16.1143 2.0668 16.1143H2.54819C3.31785 16.1143 3.84122 15.3307 3.54735 14.6198L2.80568 12.8314" fill="#7B7E80"/>
<path d="M3.32592 9.56238C3.32592 9.56238 2.02169 12.0393 2.29037 15.2635" stroke="#7B7E80" stroke-width="1.39938" stroke-miterlimit="10"/>
</g>
<defs>
<clipPath id="clip0_71_1131">
<rect width="20" height="14.1506" fill="white" transform="translate(0.833008 3.42468)"/>
</clipPath>
</defs>
</svg>
