<svg width="17" height="17" viewBox="0 0 17 17" fill="none" xmlns="http://www.w3.org/2000/svg">
<path d="M15.166 8.11112C15.1687 9.13768 14.9288 10.1504 14.466 11.0667C13.9172 12.1647 13.0736 13.0882 12.0296 13.7339C10.9856 14.3795 9.78241 14.7217 8.55489 14.7222C7.52833 14.7249 6.51565 14.4851 5.59934 14.0222L1.16602 15.5L2.64379 11.0667C2.18096 10.1504 1.94112 9.13768 1.94379 8.11112C1.94427 6.8836 2.28649 5.68046 2.93213 4.63644C3.57777 3.59243 4.50132 2.74879 5.59934 2.20002C6.51565 1.73719 7.52833 1.49735 8.55489 1.50002H8.94378C10.5649 1.58946 12.0961 2.27372 13.2442 3.4218C14.3923 4.56987 15.0766 6.10108 15.166 7.72223V8.11112Z" stroke="#7B7E80" stroke-width="1.6" stroke-linecap="round" stroke-linejoin="round"/>
</svg>
