<svg width="24" height="24" viewBox="0 0 24 24" fill="none" xmlns="http://www.w3.org/2000/svg">
<path d="M8.70486 18.8672L10.7897 19.6173L9.92339 22.0252C9.71016 22.6178 9.07092 22.9301 8.49501 22.7229C7.9191 22.5157 7.62531 21.8677 7.83854 21.2751L8.70486 18.8672Z" fill="#4B4D4E"/>
<g filter="url(#filter0_i_220_3957)">
<path d="M13.4128 21.4573C14.5976 21.8836 15.8119 20.7165 15.5161 19.4288L14.8477 16.4976C14.6288 15.5357 14.882 14.4984 15.5244 13.7332L20.6521 7.62638C21.4031 6.72663 21.093 5.35082 20.0552 4.97741L10.4766 1.53124C9.43556 1.15671 8.32007 2.01964 8.32879 3.1927L8.39053 11.1666C8.39828 12.1657 7.93254 13.1265 7.15105 13.7285L4.76833 15.562C3.72305 16.3672 3.91239 18.0392 5.0972 18.4655L13.4128 21.4573Z" fill="#E89B16"/>
</g>
<defs>
<filter id="filter0_i_220_3957" x="2.23571" y="0.517863" width="18.8312" height="21.0288" filterUnits="userSpaceOnUse" color-interpolation-filters="sRGB">
<feFlood flood-opacity="0" result="BackgroundImageFix"/>
<feBlend mode="normal" in="SourceGraphic" in2="BackgroundImageFix" result="shape"/>
<feColorMatrix in="SourceAlpha" type="matrix" values="0 0 0 0 0 0 0 0 0 0 0 0 0 0 0 0 0 0 127 0" result="hardAlpha"/>
<feOffset dx="-1.84953" dy="-0.924764"/>
<feGaussianBlur stdDeviation="1.84953"/>
<feComposite in2="hardAlpha" operator="arithmetic" k2="-1" k3="1"/>
<feColorMatrix type="matrix" values="0 0 0 0 0.697966 0 0 0 0 0.325717 0 0 0 0 0 0 0 0 0.4 0"/>
<feBlend mode="normal" in2="shape" result="effect1_innerShadow_220_3957"/>
</filter>
</defs>
</svg>
