<svg width="34" height="35" viewBox="0 0 34 35" fill="none" xmlns="http://www.w3.org/2000/svg">
<path d="M16.9999 31.5C25.3504 31.5 32.1199 28.9928 32.1199 25.9C32.1199 22.8072 25.3504 20.3 16.9999 20.3C8.64934 20.3 1.87988 22.8072 1.87988 25.9C1.87988 28.9928 8.64934 31.5 16.9999 31.5Z" fill="url(#paint0_radial_71_991)"/>
<path d="M16.9999 25.9C25.3504 25.9 32.1199 23.3928 32.1199 20.3C32.1199 17.2072 25.3504 14.7 16.9999 14.7C8.64934 14.7 1.87988 17.2072 1.87988 20.3C1.87988 23.3928 8.64934 25.9 16.9999 25.9Z" fill="url(#paint1_radial_71_991)"/>
<path d="M16.9999 20.3C25.3504 20.3 32.1199 17.7928 32.1199 14.7C32.1199 11.6072 25.3504 9.10004 16.9999 9.10004C8.64934 9.10004 1.87988 11.6072 1.87988 14.7C1.87988 17.7928 8.64934 20.3 16.9999 20.3Z" fill="url(#paint2_radial_71_991)"/>
<path d="M16.9999 14.7C25.3504 14.7 32.1199 12.1928 32.1199 9.1C32.1199 6.00721 25.3504 3.5 16.9999 3.5C8.64934 3.5 1.87988 6.00721 1.87988 9.1C1.87988 12.1928 8.64934 14.7 16.9999 14.7Z" fill="url(#paint3_radial_71_991)"/>
<defs>
<radialGradient id="paint0_radial_71_991" cx="0" cy="0" r="1" gradientUnits="userSpaceOnUse" gradientTransform="translate(17.1618 26.0858) scale(15.3095 5.64409)">
<stop stop-color="#DA9EFF" stop-opacity="0.3"/>
<stop offset="1" stop-color="#E545FF" stop-opacity="0.7"/>
</radialGradient>
<radialGradient id="paint1_radial_71_991" cx="0" cy="0" r="1" gradientUnits="userSpaceOnUse" gradientTransform="translate(17.1618 20.4858) scale(15.3095 5.64409)">
<stop stop-color="#DA9EFF" stop-opacity="0.3"/>
<stop offset="1" stop-color="#E545FF" stop-opacity="0.7"/>
</radialGradient>
<radialGradient id="paint2_radial_71_991" cx="0" cy="0" r="1" gradientUnits="userSpaceOnUse" gradientTransform="translate(17.1618 14.8858) scale(15.3095 5.64409)">
<stop stop-color="#DA9EFF" stop-opacity="0.3"/>
<stop offset="1" stop-color="#E545FF" stop-opacity="0.7"/>
</radialGradient>
<radialGradient id="paint3_radial_71_991" cx="0" cy="0" r="1" gradientUnits="userSpaceOnUse" gradientTransform="translate(17.1618 9.28579) scale(15.3095 5.64409)">
<stop stop-color="#DA9EFF" stop-opacity="0.3"/>
<stop offset="1" stop-color="#E545FF" stop-opacity="0.7"/>
</radialGradient>
</defs>
</svg>
