<svg width="24" height="24" viewBox="0 0 24 24" fill="none" xmlns="http://www.w3.org/2000/svg">
<path d="M8.46366 18.8906L10.5485 19.6407L9.68219 22.0486C9.46896 22.6413 8.82972 22.9535 8.25381 22.7463C7.67791 22.5391 7.38412 21.8912 7.59735 21.2985L8.46366 18.8906Z" fill="#ACB0B3"/>
<path d="M14.8852 19.5738L14.885 19.5728L14.2165 16.6415L14.2165 16.6412C13.9521 15.4794 14.2575 14.2354 15.0287 13.317C15.0287 13.317 15.0287 13.317 15.0287 13.317L20.1552 7.21159C20.1553 7.21141 20.1555 7.21122 20.1556 7.21103C20.6603 6.60569 20.3902 5.78593 19.836 5.58652L10.2574 2.14035C9.69891 1.93941 8.97035 2.40083 8.9761 3.18772C8.9761 3.18778 8.9761 3.18783 8.9761 3.18789L9.03785 11.1616C9.04715 12.3608 8.48999 13.5143 7.54606 14.2413L7.54583 14.2415L5.16336 16.0749L14.8852 19.5738ZM14.8852 19.5738C15.0831 20.4352 14.2662 21.0764 13.632 20.8482M14.8852 19.5738L13.632 20.8482M13.632 20.8482L5.31635 17.8564C4.68429 17.629 4.46181 16.6155 5.16311 16.0751L13.632 20.8482Z" stroke="#ACB0B3" stroke-width="1.29467"/>
</svg>
