<svg width="16" height="16" viewBox="0 0 16 16" fill="none" xmlns="http://www.w3.org/2000/svg">
<path d="M8.00002 13.3332C7.63335 13.3332 7.31946 13.2026 7.05835 12.9415C6.79724 12.6804 6.66669 12.3665 6.66669 11.9998C6.66669 11.6332 6.79724 11.3193 7.05835 11.0582C7.31946 10.7971 7.63335 10.6665 8.00002 10.6665C8.36669 10.6665 8.68058 10.7971 8.94169 11.0582C9.2028 11.3193 9.33335 11.6332 9.33335 11.9998C9.33335 12.3665 9.2028 12.6804 8.94169 12.9415C8.68058 13.2026 8.36669 13.3332 8.00002 13.3332ZM8.00002 9.33317C7.63335 9.33317 7.31946 9.20262 7.05835 8.9415C6.79724 8.68039 6.66669 8.3665 6.66669 7.99984C6.66669 7.63317 6.79724 7.31928 7.05835 7.05817C7.31946 6.79706 7.63335 6.6665 8.00002 6.6665C8.36669 6.6665 8.68058 6.79706 8.94169 7.05817C9.2028 7.31928 9.33335 7.63317 9.33335 7.99984C9.33335 8.3665 9.2028 8.68039 8.94169 8.9415C8.68058 9.20262 8.36669 9.33317 8.00002 9.33317ZM8.00002 5.33317C7.63335 5.33317 7.31946 5.20262 7.05835 4.9415C6.79724 4.68039 6.66669 4.3665 6.66669 3.99984C6.66669 3.63317 6.79724 3.31928 7.05835 3.05817C7.31946 2.79706 7.63335 2.6665 8.00002 2.6665C8.36669 2.6665 8.68058 2.79706 8.94169 3.05817C9.2028 3.31928 9.33335 3.63317 9.33335 3.99984C9.33335 4.3665 9.2028 4.68039 8.94169 4.9415C8.68058 5.20262 8.36669 5.33317 8.00002 5.33317Z" fill="#74787A"/>
</svg>
