<svg width="100" height="100" viewBox="0 0 100 100" fill="none" xmlns="http://www.w3.org/2000/svg">
<g clip-path="url(#clip0_529_46946)">
<path d="M50 100C77.6142 100 100 77.6142 100 50C100 22.3858 77.6142 0 50 0C22.3858 0 0 22.3858 0 50C0 77.6142 22.3858 100 50 100Z" fill="#ACB0B3"/>
<path fill-rule="evenodd" clip-rule="evenodd" d="M30.4944 30.4945C30.4944 41.2698 39.2245 50 49.9999 50C60.7752 50 69.5054 41.2698 69.5054 30.4945C69.5054 19.7192 60.7752 10.989 49.9999 10.989C39.2245 10.989 30.4944 19.7192 30.4944 30.4945ZM33.6385 61.9201C43.1623 54.472 56.8375 54.472 66.346 61.9201H66.3613C72.4663 66.7126 75.8546 73.4281 76.5414 80.3573C76.8314 83.364 75.2593 86.2486 72.6647 87.8054C66.0408 91.7889 58.2874 94.0783 49.9999 94.0783C41.7123 94.0783 33.959 91.7889 27.335 87.8054C24.7404 86.2486 23.1684 83.364 23.4584 80.3573C24.1452 73.4128 27.5334 66.6973 33.6385 61.9201Z" fill="#E3E9F2"/>
</g>
<defs>
<clipPath id="clip0_529_46946">
<rect width="100" height="100" fill="white"/>
</clipPath>
</defs>
</svg>
