<svg width="30" height="30" viewBox="0 0 30 30" fill="none" xmlns="http://www.w3.org/2000/svg">
<path d="M20.6331 10.6667H19.6808V8.7619C19.6808 6.13333 17.5474 4 14.9189 4C12.2903 4 10.1569 6.13333 10.1569 8.7619V10.6667H9.20457C8.15695 10.6667 7.2998 11.5238 7.2998 12.5714V22.0952C7.2998 23.1429 8.15695 24 9.20457 24H20.6331C21.6808 24 22.5379 23.1429 22.5379 22.0952V12.5714C22.5379 11.5238 21.6808 10.6667 20.6331 10.6667ZM14.9189 19.2381C13.8712 19.2381 13.0141 18.381 13.0141 17.3333C13.0141 16.2857 13.8712 15.4286 14.9189 15.4286C15.9665 15.4286 16.8236 16.2857 16.8236 17.3333C16.8236 18.381 15.9665 19.2381 14.9189 19.2381ZM17.8712 10.6667H11.9665V8.7619C11.9665 7.13333 13.2903 5.80952 14.9189 5.80952C16.5474 5.80952 17.8712 7.13333 17.8712 8.7619V10.6667Z" fill="#ADA389"/>
</svg>
