<svg width="30" height="30" viewBox="0 0 30 30" fill="none" xmlns="http://www.w3.org/2000/svg">
<path fill-rule="evenodd" clip-rule="evenodd" d="M16.2139 7.77367C17.2455 6.74211 18.918 6.74211 19.9495 7.77367L21.8616 9.68574C22.8932 10.7173 22.8932 12.3898 21.8616 13.4214L14.044 21.239H22.4842C22.9705 21.239 23.3647 21.6332 23.3647 22.1195C23.3647 22.6058 22.9705 23 22.4842 23H7.51578C7.0295 23 6.63528 22.6058 6.63528 22.1195V17.717C6.63528 17.4835 6.72805 17.2595 6.89318 17.0944L16.2139 7.77367ZM11.5535 21.239L18.5975 14.195L15.4402 11.0378L8.39628 18.0817V21.239H11.5535ZM16.6855 9.79256L19.8427 12.9498L20.6164 12.1762C20.9603 11.8323 20.9603 11.2748 20.6164 10.9309L18.7043 9.01888C18.3605 8.67503 17.803 8.67503 17.4591 9.01888L16.6855 9.79256Z" fill="#74787A"/>
</svg>
