<svg width="21" height="21" viewBox="0 0 21 21" fill="none" xmlns="http://www.w3.org/2000/svg">
<path d="M18.043 7.39375C17.1242 3.35125 13.5979 1.53125 10.5004 1.53125C10.5004 1.53125 10.5004 1.53125 10.4917 1.53125C7.40295 1.53125 3.86795 3.3425 2.9492 7.385C1.92545 11.9 4.69045 15.7238 7.19295 18.13C8.12045 19.0225 9.31045 19.4688 10.5004 19.4688C11.6904 19.4688 12.8805 19.0225 13.7992 18.13C16.3017 15.7238 19.0667 11.9088 18.043 7.39375ZM10.5004 11.7775C8.97795 11.7775 7.7442 10.5438 7.7442 9.02125C7.7442 7.49875 8.97795 6.265 10.5004 6.265C12.0229 6.265 13.2567 7.49875 13.2567 9.02125C13.2567 10.5438 12.0229 11.7775 10.5004 11.7775Z" fill="#ACB0B3"/>
</svg>
