<svg width="21" height="21" viewBox="0 0 21 21" fill="none" xmlns="http://www.w3.org/2000/svg">
<g clip-path="url(#clip0_503_38069)">
<path d="M10.6114 12.3221C10.3139 12.3221 10.0198 12.268 9.74255 12.1632L4.02942 10.0132V14.4113C4.02942 16.2672 6.97726 17.7716 10.6114 17.7716C14.2455 17.7716 17.1933 16.2672 17.1933 14.4113V10.0132L11.4802 12.1632C11.1996 12.268 10.9088 12.3221 10.6114 12.3221Z" fill="#ACB0B3"/>
<path d="M20.7801 6.94694L11.1218 3.31622C10.7905 3.19114 10.4254 3.19114 10.0975 3.31622L0.439282 6.94694C0.148554 7.0585 0.148554 7.47092 0.439282 7.5791L1.81517 8.09633C1.10525 9.35051 0.91594 10.7163 0.875373 11.5479L0.0877043 13.4545C-0.219926 14.1915 0.324343 15.0062 1.12215 15.0062H1.62248C2.42029 15.0062 2.96456 14.1948 2.65693 13.4545L1.88616 11.5986C1.92334 10.838 2.09575 9.57025 2.77186 8.45804L10.0941 11.2132C10.4254 11.3383 10.7905 11.3383 11.1185 11.2132L20.7767 7.5791C21.0674 7.46754 21.0674 7.05512 20.7767 6.94694H20.7801Z" fill="#ACB0B3"/>
</g>
<defs>
<clipPath id="clip0_503_38069">
<rect width="21" height="14.5567" fill="white" transform="translate(0 3.22168)"/>
</clipPath>
</defs>
</svg>
