<svg width="22" height="21" viewBox="0 0 22 21" fill="none" xmlns="http://www.w3.org/2000/svg">
<path d="M3.75 6H18.25C18.4489 6 18.6397 6.07902 18.7803 6.21967C18.921 6.36032 19 6.55109 19 6.75C19 6.94891 18.921 7.13968 18.7803 7.28033C18.6397 7.42098 18.4489 7.5 18.25 7.5H3.75C3.55109 7.5 3.36032 7.42098 3.21967 7.28033C3.07902 7.13968 3 6.94891 3 6.75C3 6.55109 3.07902 6.36032 3.21967 6.21967C3.36032 6.07902 3.55109 6 3.75 6ZM6 10.75C6 10.5511 6.07902 10.3603 6.21967 10.2197C6.36032 10.079 6.55109 10 6.75 10H15.25C15.4489 10 15.6397 10.079 15.7803 10.2197C15.921 10.3603 16 10.5511 16 10.75C16 10.9489 15.921 11.1397 15.7803 11.2803C15.6397 11.421 15.4489 11.5 15.25 11.5H6.75C6.55109 11.5 6.36032 11.421 6.21967 11.2803C6.07902 11.1397 6 10.9489 6 10.75ZM9 14.75C9 14.5511 9.07902 14.3603 9.21967 14.2197C9.36032 14.079 9.55109 14 9.75 14H12.25C12.4489 14 12.6397 14.079 12.7803 14.2197C12.921 14.3603 13 14.5511 13 14.75C13 14.9489 12.921 15.1397 12.7803 15.2803C12.6397 15.421 12.4489 15.5 12.25 15.5H9.75C9.55109 15.5 9.36032 15.421 9.21967 15.2803C9.07902 15.1397 9 14.9489 9 14.75Z" fill="#ACB0B3"/>
</svg>
