<svg width="60" height="60" viewBox="0 0 60 60" fill="none" xmlns="http://www.w3.org/2000/svg">
<g opacity="0.4">
<path fill-rule="evenodd" clip-rule="evenodd" d="M14.0625 7.03125C10.1792 7.03125 7.03125 10.1792 7.03125 14.0625V33.5822L8.56216 32.0513C8.96691 31.6466 9.39565 31.2808 9.84375 30.954V14.0625C9.84375 11.7325 11.7325 9.84375 14.0625 9.84375H45.9375C48.2675 9.84375 50.1562 11.7325 50.1562 14.0625V38.8054C50.9225 39.4511 51.703 40.1151 52.4815 40.7856L52.9688 41.2052V14.0625C52.9688 10.1792 49.8208 7.03125 45.9375 7.03125H14.0625ZM52.9688 44.7539L50.6461 42.9166C50.4829 42.7761 50.3195 42.6358 50.1562 42.4958V45.9375C50.1562 48.2674 48.2674 50.1562 45.9375 50.1562H14.0625C11.7326 50.1562 9.84375 48.2674 9.84375 45.9375V34.7481L7.03125 37.5644V45.9375C7.03125 49.8207 10.1792 52.9688 14.0625 52.9688H45.9375C49.8208 52.9688 52.9688 49.8207 52.9688 45.9375V44.7539Z" fill="#87B1C9"/>
<path fill-rule="evenodd" clip-rule="evenodd" d="M45.9373 8.4375H14.0623C10.9557 8.4375 8.43726 10.9559 8.43726 14.0625V32.1764L8.56091 32.0527C12.8457 27.7679 19.8192 27.8549 23.9958 32.2453L30.4028 38.9804C30.575 39.1614 30.8589 39.1755 31.0483 39.0125L34.8962 35.6985C38.1222 32.9202 42.8806 32.8049 46.1961 35.5199C47.8032 36.8359 49.6696 38.385 51.5623 40V14.0625C51.5623 10.9559 49.0439 8.4375 45.9373 8.4375ZM51.5623 43.7081L50.6449 42.918C48.4667 41.0422 46.2692 39.2149 44.4142 37.6959C42.1768 35.8638 38.9438 35.9243 36.7316 37.8296L32.8836 41.1436C31.5583 42.285 29.5706 42.1862 28.365 40.9189L21.958 34.1838C18.871 30.9387 13.7167 30.8744 10.5496 34.0415L8.43756 36.1535L8.43726 36.1532V45.9377C8.43726 49.0443 10.9557 51.5627 14.0623 51.5627H45.9373C49.0439 51.5627 51.5623 49.0443 51.5623 45.9377V43.7081ZM38.327 17.686C36.3778 17.686 34.7977 19.2661 34.7977 21.2153C34.7977 23.1645 36.3778 24.7447 38.327 24.7447C40.2762 24.7447 41.8564 23.1645 41.8564 21.2153C41.8564 19.2661 40.2762 17.686 38.327 17.686ZM31.9852 21.2153C31.9852 17.7128 34.8245 14.8735 38.327 14.8735C41.8295 14.8735 44.6689 17.7128 44.6689 21.2153C44.6689 24.7178 41.8295 27.5572 38.327 27.5572C34.8245 27.5572 31.9852 24.7178 31.9852 21.2153Z" fill="#87B1C9"/>
</g>
</svg>
