<svg width="21" height="21" viewBox="0 0 21 21" fill="none" xmlns="http://www.w3.org/2000/svg">
<path fill-rule="evenodd" clip-rule="evenodd" d="M7.84445 2.12222C7.84445 1.77858 7.56587 1.5 7.22223 1.5C6.87858 1.5 6.60001 1.77858 6.60001 2.12222V3.1H4.82223C3.59493 3.1 2.60001 4.09492 2.60001 5.32222V8.52222V16.5222C2.60001 17.7495 3.59493 18.7444 4.82223 18.7444H16.0222C17.2495 18.7444 18.2445 17.7495 18.2445 16.5222V8.52222V5.32222C18.2445 4.09492 17.2495 3.1 16.0222 3.1H14.2445V2.12222C14.2445 1.77858 13.9659 1.5 13.6222 1.5C13.2786 1.5 13 1.77858 13 2.12222V3.1H7.84445V2.12222ZM4.82223 4.34444H6.60001V5.32222C6.60001 5.66587 6.87858 5.94444 7.22223 5.94444C7.56587 5.94444 7.84445 5.66587 7.84445 5.32222V4.34444H13V5.32222C13 5.66587 13.2786 5.94444 13.6222 5.94444C13.9659 5.94444 14.2445 5.66587 14.2445 5.32222V4.34444H16.0222C16.5622 4.34444 17 4.78221 17 5.32222V7.9H3.84445V5.32222C3.84445 4.78221 4.28222 4.34444 4.82223 4.34444ZM3.84445 9.14444H17V16.5222C17 17.0622 16.5622 17.5 16.0222 17.5H4.82223C4.28222 17.5 3.84445 17.0622 3.84445 16.5222V9.14444ZM6.32233 12.6222C6.87461 12.6222 7.32233 12.1745 7.32233 11.6222C7.32233 11.0699 6.87461 10.6222 6.32233 10.6222C5.77004 10.6222 5.32233 11.0699 5.32233 11.6222C5.32233 12.1745 5.77004 12.6222 6.32233 12.6222ZM7.32233 14.6222C7.32233 15.1745 6.87461 15.6222 6.32233 15.6222C5.77004 15.6222 5.32233 15.1745 5.32233 14.6222C5.32233 14.0699 5.77004 13.6222 6.32233 13.6222C6.87461 13.6222 7.32233 14.0699 7.32233 14.6222ZM9.32233 12.6222C9.87461 12.6222 10.3223 12.1745 10.3223 11.6222C10.3223 11.0699 9.87461 10.6222 9.32233 10.6222C8.77004 10.6222 8.32233 11.0699 8.32233 11.6222C8.32233 12.1745 8.77004 12.6222 9.32233 12.6222Z" fill="#ACB0B3"/>
</svg>
