<svg width="21" height="21" viewBox="0 0 21 21" fill="none" xmlns="http://www.w3.org/2000/svg">
<path d="M1.50003 16.2287V14.9465C1.50003 12.6332 3.37534 10.7625 5.68411 10.7625C7.99744 10.7625 9.86819 12.6378 9.86819 14.9465V16.2287C9.86819 16.8538 9.36172 17.3557 8.74118 17.3557H2.62704C2.0065 17.3557 1.50003 16.8492 1.50003 16.2287Z" fill="#ACB0B3"/>
<path d="M5.68434 9.76779C7.37523 9.76779 8.74597 8.39705 8.74597 6.70616C8.74597 5.01527 7.37523 3.64453 5.68434 3.64453C3.99345 3.64453 2.62271 5.01527 2.62271 6.70616C2.62271 8.39705 3.99345 9.76779 5.68434 9.76779Z" fill="#ACB0B3"/>
<path d="M11.1319 16.2287V14.9465C11.1319 12.6332 13.0072 10.7625 15.3159 10.7625C17.6293 10.7625 19.5 12.6378 19.5 14.9465V16.2287C19.5 16.8538 18.9936 17.3557 18.373 17.3557H12.2589C11.6338 17.3557 11.1319 16.8492 11.1319 16.2287Z" fill="#ACB0B3"/>
<path d="M15.3206 9.76779C17.0115 9.76779 18.3822 8.39705 18.3822 6.70616C18.3822 5.01527 17.0115 3.64453 15.3206 3.64453C13.6297 3.64453 12.2589 5.01527 12.2589 6.70616C12.2589 8.39705 13.6297 9.76779 15.3206 9.76779Z" fill="#ACB0B3"/>
</svg>
