<svg width="440" height="196" viewBox="0 0 440 196" fill="none" xmlns="http://www.w3.org/2000/svg">
<path d="M393.937 195C420.059 181.869 434.064 157.065 428.186 134.341C422.308 111.617 396.873 92.2298 365.983 86.9269C336.842 81.9244 305.627 88.6598 276.613 83.2792C245.301 77.4726 222.144 58.7945 200.6 41.2499C179.056 23.7054 154.903 5.43603 123.18 0.969276C86.4207 -4.20662 48.0061 11.9296 29.094 35.4726C10.1819 59.0156 8.4459 88.2617 16.6844 114.872C24.6056 140.457 41.0983 169.058 46.3984 195H393.937Z" fill="#E3ECF2"/>
<rect x="221" y="168" width="46" height="2" fill="#000024"/>
<rect x="221" y="172" width="46" height="2" fill="#000024"/>
<rect x="221" y="176" width="46" height="2" fill="#000024"/>
<rect x="221" y="180" width="46" height="2" fill="#000024"/>
<rect x="233" y="180" width="14" height="2" transform="rotate(90 233 180)" fill="#000024"/>
<rect x="257" y="180" width="14" height="2" transform="rotate(90 257 180)" fill="#000024"/>
<path d="M55.1764 74.2603C55 74.5438 52.7475 67.2242 48.0458 65.5283C48.0458 65.5283 52.2496 64.2641 55.5218 70.2574C55.5218 70.2574 60.9713 66.9809 65.7484 70.4696C65.7484 70.4678 57.8534 69.9812 55.1764 74.2603Z" fill="white"/>
<path d="M270.079 113.692C270.191 113.873 271.624 109.215 274.616 108.136C274.616 108.136 271.941 107.331 269.859 111.145C269.859 111.145 266.391 109.06 263.351 111.28C263.351 111.279 268.375 110.969 270.079 113.692Z" fill="white"/>
<path d="M253.357 107.403C253.605 107.626 253.731 99.969 257.775 97.0312C257.775 97.0312 253.385 96.9873 251.911 103.655C251.911 103.655 245.765 102.025 242.148 106.706C242.147 106.704 249.595 104.038 253.357 107.403Z" fill="white"/>
<path d="M60.7076 71.5694C60.6946 71.6832 58.9199 69.738 57.2133 69.8984C57.2133 69.8984 58.3301 68.8911 60.2257 70.2749C60.2257 70.2749 61.4328 68.4596 63.4263 68.8453C63.427 68.8453 60.908 69.848 60.7076 71.5694Z" fill="#CEEBF7"/>
<path d="M114.611 13.9272C114.626 14.0349 112.527 12.6709 110.995 13.2276C110.995 13.2276 111.78 12.0332 113.857 12.8519C113.857 12.8519 114.531 10.893 116.457 10.77C116.457 10.77 114.382 12.2959 114.611 13.9272Z" fill="#CEEBF7"/>
<path d="M141.668 51.9647C143.319 51.7776 145.005 51.046 146.131 50.4641C148.207 49.0214 150.683 48.1791 153.347 48.1791C153.815 48.1791 154.278 48.2066 154.733 48.257C155.666 45.6207 158.057 43.7442 160.861 43.7442C162.036 43.7442 163.136 44.0749 164.089 44.65C165.311 43.5907 166.87 42.9553 168.569 42.9553C168.884 42.9553 169.195 42.9798 169.499 43.0218C171.007 40.8467 173.431 39.4354 176.165 39.4354C176.961 39.4354 177.729 39.5569 178.456 39.7799C180.174 38.7084 182.172 38.0913 184.306 38.0913C189.989 38.0913 194.712 42.4459 195.698 48.1898C195.79 48.1844 195.882 48.1783 195.975 48.1783C197.479 48.1783 198.898 48.7305 200.154 49.7034L200.154 49.6965C200.154 49.6965 202.732 51.6402 205.217 51.964C207.702 52.287 218.77 52.3222 219.727 53.0278H202.951H199.775H195.627H188.997H172.985H169.216H167.037H154.684H147.905H143.36H125.029C126.128 52.3229 138.818 52.2878 141.668 51.9647Z" fill="url(#paint0_linear_392_24453)"/>
<path d="M19.327 29.115C20.8125 28.9699 22.3348 28.3284 23.1472 27.9381C24.5279 27.1141 26.142 26.6391 27.8677 26.6391C28.3481 26.6391 28.8194 26.678 29.2799 26.7491C30.0318 25.4103 31.4669 24.5045 33.1138 24.5045C33.7159 24.5045 34.2888 24.6252 34.8113 24.8444C35.717 23.8493 37.0243 23.2238 38.4777 23.2238C38.6973 23.2238 38.9137 23.2398 39.1264 23.2673C40.1767 21.8453 41.8665 20.922 43.772 20.922C44.3526 20.922 44.9126 21.0083 45.4404 21.1679C46.9275 19.9857 48.81 19.277 50.8586 19.277C53.6644 19.277 56.1582 20.6035 57.7509 22.6602C58.3246 22.483 58.9342 22.3875 59.5661 22.3875C62.3039 22.3875 64.6225 24.1784 65.4119 26.6498C65.929 26.6803 66.4301 26.7964 66.9082 26.9911C67.2027 27.0782 67.4727 27.2203 67.7083 27.4043C67.8254 27.4769 67.9401 27.5548 68.0533 27.6365L68.0541 27.6319C68.0541 27.6319 69.8502 28.9035 71.5828 29.1142C73.3155 29.3258 81.0293 29.3487 81.6964 29.81H70.0032H67.7902H60.2783H59.3687H53.6683H53.5696H48.6157H43.1486H42.3499H42.1755H38.9283H37.4098H35.1578H34.8281H33.8069H30.4296H28.8178H24.0758H20.9074H6.66309C7.49842 29.3495 17.1576 29.3266 19.327 29.115Z" fill="url(#paint1_linear_392_24453)"/>
<ellipse cx="109.579" cy="83.0735" rx="35.5283" ry="68.0457" fill="#AACAEF"/>
<path d="M152.086 129.272C146.627 141.594 116.887 154.287 108.378 150.517C99.8685 146.747 115.813 127.942 121.272 115.621C126.73 103.299 138.053 96.3661 146.563 100.136C155.072 103.906 157.545 116.95 152.086 129.272Z" fill="#AACAEF"/>
<path d="M97.5417 108.286C99.3979 118.98 113.928 148.925 104.758 150.517C75.5192 142.702 66.1917 124.744 64.3355 114.05C62.4793 103.357 68.4081 93.3979 77.5777 91.8062C86.7473 90.2145 95.6855 97.5929 97.5417 108.286Z" fill="#AACAEF"/>
<path d="M115 34.2969C110.383 63.0005 103.92 135.101 115 193.873" stroke="#000024" stroke-width="1.09091" stroke-linecap="round" stroke-linejoin="round"/>
<path d="M133.061 66.8147C125.744 70.8292 110.925 78.8582 110.178 78.8582" stroke="#000024" stroke-width="1.09091" stroke-linecap="round" stroke-linejoin="round"/>
<path d="M123.636 107.762C119.015 112.178 109.656 121.01 109.184 121.01" stroke="#000024" stroke-width="1.09091" stroke-linecap="round" stroke-linejoin="round"/>
<path d="M80.0737 83.6753C87.5005 87.8905 103.679 96.8027 108.978 98.7296" stroke="#000024" stroke-width="1.09091" stroke-linecap="round" stroke-linejoin="round"/>
<ellipse cx="19.5736" cy="37.4884" rx="19.5736" ry="37.4884" transform="matrix(-1 0 0 1 400.024 95.4375)" fill="#AACAEF"/>
<path d="M357.03 158.378C360.038 165.167 376.423 172.16 381.111 170.083C385.798 168.006 377.014 157.646 374.007 150.857C371 144.069 364.761 140.249 360.073 142.326C355.385 144.403 354.023 151.59 357.03 158.378Z" fill="#AACAEF"/>
<path d="M387.082 146.817C386.059 152.708 378.054 169.206 383.106 170.083C399.214 165.778 404.353 155.884 405.376 149.992C406.399 144.101 403.132 138.614 398.08 137.737C393.029 136.86 388.104 140.925 387.082 146.817Z" fill="#AACAEF"/>
<path d="M377.464 106.054C380.008 121.868 383.568 161.59 377.464 193.969" stroke="#000024" stroke-width="1.09091" stroke-linecap="round" stroke-linejoin="round"/>
<path d="M363.862 121.979C369.059 124.854 379.587 130.604 380.118 130.604" stroke="#000024" stroke-width="1.09091" stroke-linecap="round" stroke-linejoin="round"/>
<path d="M372.156 146.529C374.701 148.962 379.858 153.827 380.118 153.827" stroke="#000024" stroke-width="1.09091" stroke-linecap="round" stroke-linejoin="round"/>
<path d="M396.704 133.257C392.612 135.579 383.699 140.489 380.779 141.551" stroke="#000024" stroke-width="1.09091" stroke-linecap="round" stroke-linejoin="round"/>
<ellipse cx="39.896" cy="128.357" rx="20.9048" ry="39.865" fill="#AACAEF"/>
<path d="M43.2997 102.105C40.3648 118.72 36.2558 160.455 43.2997 194.475" stroke="#000024" stroke-width="1.09091" stroke-linecap="round" stroke-linejoin="round"/>
<path d="M51.5148 121.01C48.0492 124.623 41.0296 131.849 40.6757 131.849" stroke="#000024" stroke-width="1.09091" stroke-linecap="round" stroke-linejoin="round"/>
<path d="M27.4285 134.257C30.523 136.618 37.264 141.609 39.472 142.688" stroke="#000024" stroke-width="1.09091" stroke-linecap="round" stroke-linejoin="round"/>
<ellipse cx="26.5398" cy="50.6107" rx="26.5398" ry="50.6107" transform="matrix(-1 0 0 1 354.079 59.9253)" fill="#AACAEF"/>
<path d="M323.219 77.2065C326.946 98.3002 332.162 151.285 323.219 194.475" stroke="#000024" stroke-width="1.09091" stroke-linecap="round" stroke-linejoin="round"/>
<path d="M314 101C318.156 105.667 326.576 115 327 115" stroke="#000024" stroke-width="1.09091" stroke-linecap="round" stroke-linejoin="round"/>
<path d="M343.37 118.027C339.441 121.023 330.883 127.36 328.08 128.729" stroke="#000024" stroke-width="1.09091" stroke-linecap="round" stroke-linejoin="round"/>
<ellipse cx="81.5621" cy="151.648" rx="13.5406" ry="25.8217" fill="#010024"/>
<path d="M83.7691 134.644C81.8681 145.406 79.2066 172.438 83.7691 194.474" stroke="#AACAEF" stroke-width="1.09091" stroke-linecap="round" stroke-linejoin="round"/>
<path d="M92.585 147.869C89.1618 149.759 82.2281 153.537 81.8785 153.537" stroke="#AACAEF" stroke-width="1.09091" stroke-linecap="round" stroke-linejoin="round"/>
<path d="M70.5415 151.018C73.2925 152.605 79.2851 155.961 81.248 156.686" stroke="#AACAEF" stroke-width="1.09091" stroke-linecap="round" stroke-linejoin="round"/>
<ellipse cx="11.3742" cy="21.6903" rx="11.3742" ry="21.6903" transform="matrix(-1 0 0 1 364.216 136.811)" fill="#010024"/>
<path d="M350.988 144.218C352.585 153.258 354.82 175.965 350.988 194.476" stroke="#AACAEF" stroke-width="1.09091" stroke-linecap="round" stroke-linejoin="round"/>
<path d="M343.582 155.328C346.458 156.915 352.282 160.089 352.576 160.089" stroke="#AACAEF" stroke-width="1.09091" stroke-linecap="round" stroke-linejoin="round"/>
<path d="M362.099 157.972C359.788 159.305 354.754 162.124 353.105 162.733" stroke="#AACAEF" stroke-width="1.09091" stroke-linecap="round" stroke-linejoin="round"/>
<path d="M35 194H396" stroke="black"/>
<defs>
<linearGradient id="paint0_linear_392_24453" x1="219.728" y1="45.5607" x2="125.031" y2="45.5607" gradientUnits="userSpaceOnUse">
<stop stop-color="white"/>
<stop offset="0.7535" stop-color="white"/>
</linearGradient>
<linearGradient id="paint1_linear_392_24453" x1="81.6961" y1="24.5439" x2="6.66309" y2="24.5439" gradientUnits="userSpaceOnUse">
<stop stop-color="white"/>
<stop offset="0.7535" stop-color="white"/>
</linearGradient>
</defs>
</svg>
