<svg width="32" height="28" viewBox="0 0 32 28" fill="none" xmlns="http://www.w3.org/2000/svg">
<g id="button image">
<path id="Vector" d="M16 28C24.3505 28 31.12 25.4928 31.12 22.4C31.12 19.3073 24.3505 16.8 16 16.8C7.64946 16.8 0.880005 19.3073 0.880005 22.4C0.880005 25.4928 7.64946 28 16 28Z" fill="url(#paint0_radial_392_24532)"/>
<path id="Vector_2" d="M16 22.4001C24.3505 22.4001 31.12 19.8929 31.12 16.8001C31.12 13.7073 24.3505 11.2001 16 11.2001C7.64946 11.2001 0.880005 13.7073 0.880005 16.8001C0.880005 19.8929 7.64946 22.4001 16 22.4001Z" fill="url(#paint1_radial_392_24532)"/>
<path id="Vector_3" d="M16 16.8C24.3505 16.8 31.12 14.2928 31.12 11.2C31.12 8.10718 24.3505 5.59998 16 5.59998C7.64946 5.59998 0.880005 8.10718 0.880005 11.2C0.880005 14.2928 7.64946 16.8 16 16.8Z" fill="url(#paint2_radial_392_24532)"/>
<path id="Vector_4" d="M16 11.2C24.3505 11.2 31.12 8.69279 31.12 5.6C31.12 2.50721 24.3505 0 16 0C7.64946 0 0.880005 2.50721 0.880005 5.6C0.880005 8.69279 7.64946 11.2 16 11.2Z" fill="url(#paint3_radial_392_24532)"/>
</g>
<defs>
<radialGradient id="paint0_radial_392_24532" cx="0" cy="0" r="1" gradientUnits="userSpaceOnUse" gradientTransform="translate(16.1619 22.5858) scale(15.3095 5.64409)">
<stop stop-color="#DA9EFF" stop-opacity="0.3"/>
<stop offset="1" stop-color="#E545FF" stop-opacity="0.7"/>
</radialGradient>
<radialGradient id="paint1_radial_392_24532" cx="0" cy="0" r="1" gradientUnits="userSpaceOnUse" gradientTransform="translate(16.1619 16.9859) scale(15.3095 5.64409)">
<stop stop-color="#DA9EFF" stop-opacity="0.3"/>
<stop offset="1" stop-color="#E545FF" stop-opacity="0.7"/>
</radialGradient>
<radialGradient id="paint2_radial_392_24532" cx="0" cy="0" r="1" gradientUnits="userSpaceOnUse" gradientTransform="translate(16.1619 11.3858) scale(15.3095 5.64409)">
<stop stop-color="#DA9EFF" stop-opacity="0.3"/>
<stop offset="1" stop-color="#E545FF" stop-opacity="0.7"/>
</radialGradient>
<radialGradient id="paint3_radial_392_24532" cx="0" cy="0" r="1" gradientUnits="userSpaceOnUse" gradientTransform="translate(16.1619 5.78579) scale(15.3095 5.64409)">
<stop stop-color="#DA9EFF" stop-opacity="0.3"/>
<stop offset="1" stop-color="#E545FF" stop-opacity="0.7"/>
</radialGradient>
</defs>
</svg>
