<svg width="20" height="18" viewBox="0 0 20 18" fill="none" xmlns="http://www.w3.org/2000/svg">
<g id="Frame 1000005266">
<path id="union-1" fill-rule="evenodd" clip-rule="evenodd" d="M11.2141 1.77392C12.2457 0.742354 13.9182 0.742352 14.9498 1.77392L16.8618 3.68598C17.8934 4.71755 17.8934 6.39004 16.8618 7.42161L9.04418 15.2393H17.4844C17.9707 15.2393 18.3649 15.6335 18.3649 16.1197C18.3649 16.606 17.9707 17.0002 17.4844 17.0002H2.51599C2.02971 17.0002 1.6355 16.606 1.6355 16.1197V11.7173C1.6355 11.4837 1.72826 11.2598 1.89339 11.0947L11.2141 1.77392ZM6.55376 15.2393L13.5977 8.19528L10.4405 5.03801L3.39649 12.082V15.2393H6.55376ZM11.6857 3.7928L14.8429 6.95007L15.6166 6.1764C15.9605 5.83254 15.9605 5.27504 15.6166 4.93119L13.7046 3.01913C13.3607 2.67527 12.8032 2.67527 12.4593 3.01913L11.6857 3.7928Z" fill="#74787A"/>
</g>
</svg>
