<svg width="40" height="40" viewBox="0 0 40 40" fill="none" xmlns="http://www.w3.org/2000/svg">
<rect width="40" height="40" rx="6" fill="#FF8A00"/>
<g clip-path="url(#clip0_503_36899)">
<path d="M19.8605 7.16895C11.0636 7.16895 3.94124 12.5964 3.94124 19.2951C3.94124 23.1286 6.28172 26.5384 9.92358 28.7579V35.295L16.7836 31.1891C17.7823 31.3404 18.8114 31.4212 19.8605 31.4212C28.6474 31.4212 35.7798 25.9937 35.7798 19.2951C35.7798 12.5964 28.6474 7.16895 19.8605 7.16895ZM19.8605 28.3543C15.2502 28.3543 11.4368 24.894 10.8719 20.435H9.45952L11.6184 17.0151L13.7773 20.435H12.5062C13.061 24.0063 16.138 26.7402 19.8605 26.7402C22.6247 26.7402 25.1569 25.2169 26.4482 22.7755L27.8706 23.5321C26.2968 26.5082 23.2199 28.3543 19.8605 28.3543ZM28.0926 21.5649L25.9337 18.145H27.2048C26.6499 14.5737 23.573 11.8398 19.8504 11.8398C17.0863 11.8398 14.5642 13.3631 13.2628 15.8045L11.8404 15.0479C13.4242 12.0718 16.491 10.2257 19.8504 10.2257C24.4608 10.2257 28.2742 13.686 28.8391 18.145H30.2515L28.0926 21.5649Z" fill="url(#paint0_linear_503_36899)"/>
</g>
<defs>
<linearGradient id="paint0_linear_503_36899" x1="19.8424" y1="52.8764" x2="19.8424" y2="18.147" gradientUnits="userSpaceOnUse">
<stop stop-color="white" stop-opacity="0.4"/>
<stop offset="1" stop-color="white" stop-opacity="0.8"/>
</linearGradient>
<clipPath id="clip0_503_36899">
<rect width="32" height="32" fill="white" transform="translate(3.86035 3.85986)"/>
</clipPath>
</defs>
</svg>
