<svg width="40" height="40" viewBox="0 0 40 40" fill="none" xmlns="http://www.w3.org/2000/svg">
<g clip-path="url(#clip0_503_36791)">
<rect width="40" height="40" rx="6" fill="#6767FF"/>
<path d="M5.1282 34.8386V31.497C5.1282 28.6407 7.44417 26.3247 10.3005 26.3247H12.3628C15.2192 26.3247 17.5352 28.6407 17.5352 31.497V34.8386C17.5352 35.3349 17.1271 35.743 16.6308 35.743H6.03253C5.53625 35.743 5.1282 35.3349 5.1282 34.8386Z" fill="url(#paint0_linear_503_36791)"/>
<path d="M22.6 34.8386V31.497C22.6 28.6407 24.916 26.3247 27.7723 26.3247H29.8346C32.691 26.3247 35.0069 28.6407 35.0069 31.497V34.8386C35.0069 35.3349 34.5989 35.743 34.1026 35.743H23.5043C23.008 35.743 22.6 35.3349 22.6 34.8386Z" fill="url(#paint1_linear_503_36791)"/>
<path d="M11.3262 25.0235C13.3666 25.0235 15.0207 23.3695 15.0207 21.329C15.0207 19.2886 13.3666 17.6345 11.3262 17.6345C9.28574 17.6345 7.63165 19.2886 7.63165 21.329C7.63165 23.3695 9.28574 25.0235 11.3262 25.0235Z" fill="url(#paint2_linear_503_36791)"/>
<path d="M28.6849 25.0235C30.7253 25.0235 32.3794 23.3695 32.3794 21.329C32.3794 19.2886 30.7253 17.6345 28.6849 17.6345C26.6444 17.6345 24.9903 19.2886 24.9903 21.329C24.9903 23.3695 26.6444 25.0235 28.6849 25.0235Z" fill="url(#paint3_linear_503_36791)"/>
<path d="M34.5409 9.81526C34.5409 6.4516 28.0232 3.71655 19.9945 3.71655C11.9658 3.71655 5.44803 6.4516 5.44803 9.81526C5.44803 12.826 10.6755 15.3295 17.5352 15.8257V18.7483L22.1891 15.8478C29.1811 15.4067 34.552 12.8812 34.552 9.82629L34.5409 9.81526Z" fill="url(#paint4_linear_503_36791)"/>
</g>
<defs>
<linearGradient id="paint0_linear_503_36791" x1="11.3262" y1="35.6547" x2="11.3262" y2="17.7005" gradientUnits="userSpaceOnUse">
<stop stop-color="white" stop-opacity="0.4"/>
<stop offset="1" stop-color="white"/>
</linearGradient>
<linearGradient id="paint1_linear_503_36791" x1="28.798" y1="35.6547" x2="28.798" y2="17.7005" gradientUnits="userSpaceOnUse">
<stop stop-color="white" stop-opacity="0.4"/>
<stop offset="1" stop-color="white"/>
</linearGradient>
<linearGradient id="paint2_linear_503_36791" x1="11.3262" y1="0.000110069" x2="11.3262" y2="0.000110069" gradientUnits="userSpaceOnUse">
<stop stop-color="white" stop-opacity="0.4"/>
<stop offset="1" stop-color="white"/>
</linearGradient>
<linearGradient id="paint3_linear_503_36791" x1="28.6849" y1="0.000110069" x2="28.6849" y2="0.000110069" gradientUnits="userSpaceOnUse">
<stop stop-color="white" stop-opacity="0.4"/>
<stop offset="1" stop-color="white"/>
</linearGradient>
<linearGradient id="paint4_linear_503_36791" x1="19.9835" y1="28.1445" x2="19.9835" y2="9.58366" gradientUnits="userSpaceOnUse">
<stop stop-color="white" stop-opacity="0.4"/>
<stop offset="1" stop-color="white" stop-opacity="0.8"/>
</linearGradient>
<clipPath id="clip0_503_36791">
<rect width="40" height="40" rx="6" fill="white"/>
</clipPath>
</defs>
</svg>
