<svg width="34" height="34" viewBox="0 0 34 34" fill="none" xmlns="http://www.w3.org/2000/svg">
<rect width="34" height="34" rx="10" fill="#630000"/>
<path fill-rule="evenodd" clip-rule="evenodd" d="M6 6C4.89543 6 4 6.89543 4 8V22C4 23.1046 4.89543 24 6 24H28C29.1046 24 30 23.1046 30 22V8C30 6.89543 29.1046 6 28 6H6ZM7 8C6.44772 8 6 8.44772 6 9V19C6 19.5523 6.44772 20 7 20H27C27.5523 20 28 19.5523 28 19V9C28 8.44772 27.5523 8 27 8H7ZM12 29V25H22V29H12ZM17 23C17.5523 23 18 22.5523 18 22C18 21.4477 17.5523 21 17 21C16.4477 21 16 21.4477 16 22C16 22.5523 16.4477 23 17 23Z" fill="url(#paint0_linear_392_14653)"/>
<defs>
<linearGradient id="paint0_linear_392_14653" x1="16.9852" y1="43.3771" x2="16.9852" y2="14.9773" gradientUnits="userSpaceOnUse">
<stop stop-color="white" stop-opacity="0.4"/>
<stop offset="1" stop-color="white" stop-opacity="0.8"/>
</linearGradient>
</defs>
</svg>
