<svg width="20" height="15" viewBox="0 0 20 15" fill="none" xmlns="http://www.w3.org/2000/svg">
<g id="contents" clip-path="url(#clip0_358_10929)">
<path id="Vector" d="M4.55032 7.4502V11.0914C4.55032 12.6279 6.99085 13.8734 9.99953 13.8734C13.0082 13.8734 15.4487 12.6279 15.4487 11.0914V7.4502" stroke="#7B7E80" stroke-width="1.39938" stroke-miterlimit="10"/>
<path id="Vector_2" d="M9.99954 1.82419C10.1423 1.82419 10.2878 1.84938 10.425 1.90255L18.421 4.91123C18.6617 5.00359 18.6617 5.34504 18.421 5.4346L10.425 8.44328C10.2878 8.49365 10.1451 8.52164 9.99954 8.52164C9.85401 8.52164 9.71127 8.49645 9.57413 8.44328L1.58085 5.4346C1.34015 5.34224 1.34015 5.00079 1.58085 4.91123L9.57693 1.90255C9.71407 1.85218 9.85681 1.82419 10.0023 1.82419M9.99954 0.424805C9.68608 0.424805 9.37542 0.48078 9.08155 0.592731L1.08826 3.59861C0.427754 3.8477 -0.000457764 4.46343 -0.000457764 5.17152C-0.000457764 5.8796 0.427754 6.49533 1.08826 6.74442L9.08434 9.7531C9.37822 9.86505 9.68608 9.92103 10.0023 9.92103C10.3186 9.92103 10.6265 9.86505 10.9203 9.7531L18.9136 6.74442C19.5741 6.49533 20.0023 5.8796 20.0023 5.17152C20.0023 4.46343 19.5741 3.8477 18.9136 3.59861L10.9175 0.592731C10.6237 0.48078 10.3158 0.424805 9.99954 0.424805Z" fill="#7B7E80"/>
<path id="Vector_3" d="M0.995897 9.78418L0.234632 11.6202C-0.0620375 12.3311 0.461332 13.1147 1.23379 13.1147H1.71518C2.48484 13.1147 3.00821 12.3311 2.71434 11.6202L1.97267 9.83176" fill="#7B7E80"/>
<path id="Vector_4" d="M2.49333 6.5625C2.49333 6.5625 1.18911 9.03941 1.45779 12.2636" stroke="#7B7E80" stroke-width="1.39938" stroke-miterlimit="10"/>
</g>
<defs>
<clipPath id="clip0_358_10929">
<rect width="20" height="14.1506" fill="white" transform="translate(0 0.424805)"/>
</clipPath>
</defs>
</svg>
