<svg width="24" height="24" viewBox="0 0 24 24" fill="none" xmlns="http://www.w3.org/2000/svg">
<path d="M16.5065 8.53328H15.7446V7.00947C15.7446 4.90662 14.0379 3.19995 11.9351 3.19995C9.83222 3.19995 8.12556 4.90662 8.12556 7.00947V8.53328H7.36365C6.52556 8.53328 5.83984 9.219 5.83984 10.0571V17.6761C5.83984 18.5142 6.52556 19.2 7.36365 19.2H16.5065C17.3446 19.2 18.0303 18.5142 18.0303 17.6761V10.0571C18.0303 9.219 17.3446 8.53328 16.5065 8.53328ZM11.9351 15.3904C11.097 15.3904 10.4113 14.7047 10.4113 13.8666C10.4113 13.0285 11.097 12.3428 11.9351 12.3428C12.7732 12.3428 13.4589 13.0285 13.4589 13.8666C13.4589 14.7047 12.7732 15.3904 11.9351 15.3904ZM14.297 8.53328H9.57318V7.00947C9.57318 5.70662 10.6322 4.64757 11.9351 4.64757C13.2379 4.64757 14.297 5.70662 14.297 7.00947V8.53328Z" fill="#4B4D4E"/>
</svg>
