<svg width="21" height="21" viewBox="0 0 21 21" fill="none" xmlns="http://www.w3.org/2000/svg">
<g id="vuesax/bold/calendar-2">
<g id="calendar-2">
<path id="Vector" d="M14.6562 3.115V1.75C14.6562 1.39125 14.3587 1.09375 14 1.09375C13.6412 1.09375 13.3437 1.39125 13.3437 1.75V3.0625H7.65624V1.75C7.65624 1.39125 7.35874 1.09375 6.99999 1.09375C6.64124 1.09375 6.34374 1.39125 6.34374 1.75V3.115C3.98124 3.33375 2.83499 4.7425 2.65999 6.83375C2.64249 7.0875 2.85249 7.2975 3.09749 7.2975H17.9025C18.1562 7.2975 18.3662 7.07875 18.34 6.83375C18.165 4.7425 17.0187 3.33375 14.6562 3.115Z" fill="#ACB0B3"/>
<path id="Vector_2" d="M17.5 8.61035H3.5C3.01875 8.61035 2.625 9.0041 2.625 9.48535V14.8754C2.625 17.5004 3.9375 19.2504 7 19.2504H14C17.0625 19.2504 18.375 17.5004 18.375 14.8754V9.48535C18.375 9.0041 17.9812 8.61035 17.5 8.61035ZM8.05875 15.9341C7.97125 16.0129 7.875 16.0741 7.77 16.1179C7.665 16.1616 7.55125 16.1879 7.4375 16.1879C7.32375 16.1879 7.21 16.1616 7.105 16.1179C7 16.0741 6.90375 16.0129 6.81625 15.9341C6.65875 15.7678 6.5625 15.5404 6.5625 15.3129C6.5625 15.0854 6.65875 14.8579 6.81625 14.6916C6.90375 14.6129 7 14.5516 7.105 14.5079C7.315 14.4204 7.56 14.4204 7.77 14.5079C7.875 14.5516 7.97125 14.6129 8.05875 14.6916C8.21625 14.8579 8.3125 15.0854 8.3125 15.3129C8.3125 15.5404 8.21625 15.7678 8.05875 15.9341ZM8.2425 12.5829C8.19875 12.6879 8.1375 12.7841 8.05875 12.8716C7.97125 12.9504 7.875 13.0116 7.77 13.0554C7.665 13.0991 7.55125 13.1254 7.4375 13.1254C7.32375 13.1254 7.21 13.0991 7.105 13.0554C7 13.0116 6.90375 12.9504 6.81625 12.8716C6.7375 12.7841 6.67625 12.6879 6.6325 12.5829C6.58875 12.4779 6.5625 12.3641 6.5625 12.2504C6.5625 12.1366 6.58875 12.0229 6.6325 11.9179C6.67625 11.8129 6.7375 11.7166 6.81625 11.6291C6.90375 11.5504 7 11.4891 7.105 11.4454C7.315 11.3579 7.56 11.3579 7.77 11.4454C7.875 11.4891 7.97125 11.5504 8.05875 11.6291C8.1375 11.7166 8.19875 11.8129 8.2425 11.9179C8.28625 12.0229 8.3125 12.1366 8.3125 12.2504C8.3125 12.3641 8.28625 12.4779 8.2425 12.5829ZM11.1213 12.8716C11.0337 12.9504 10.9375 13.0116 10.8325 13.0554C10.7275 13.0991 10.6137 13.1254 10.5 13.1254C10.3863 13.1254 10.2725 13.0991 10.1675 13.0554C10.0625 13.0116 9.96625 12.9504 9.87875 12.8716C9.72125 12.7054 9.625 12.4779 9.625 12.2504C9.625 12.0229 9.72125 11.7954 9.87875 11.6291C9.96625 11.5504 10.0625 11.4891 10.1675 11.4454C10.3775 11.3491 10.6225 11.3491 10.8325 11.4454C10.9375 11.4891 11.0337 11.5504 11.1213 11.6291C11.2788 11.7954 11.375 12.0229 11.375 12.2504C11.375 12.4779 11.2788 12.7054 11.1213 12.8716Z" fill="#ACB0B3"/>
</g>
</g>
</svg>
