<svg width="60" height="60" viewBox="0 0 60 60" fill="none" xmlns="http://www.w3.org/2000/svg">
<g id="Frame 1000005246">
<path id="Vector" d="M30 55C43.8071 55 55 43.8071 55 30C55 16.1929 43.8071 5 30 5C16.1929 5 5 16.1929 5 30C5 43.8071 16.1929 55 30 55Z" fill="#FF6B57"/>
<g id="clock">
<path id="Vector_2" d="M30 17C22.837 17 17 22.837 17 30C17 37.163 22.837 43 30 43C37.163 43 43 37.163 43 30C43 22.837 37.163 17 30 17ZM35.655 34.641C35.473 34.953 35.148 35.122 34.81 35.122C34.641 35.122 34.472 35.083 34.316 34.979L30.286 32.574C29.285 31.976 28.544 30.663 28.544 29.506V24.176C28.544 23.643 28.986 23.201 29.519 23.201C30.052 23.201 30.494 23.643 30.494 24.176V29.506C30.494 29.974 30.884 30.663 31.287 30.897L35.317 33.302C35.785 33.575 35.941 34.173 35.655 34.641Z" fill="url(#paint0_linear_358_10973)"/>
</g>
</g>
<defs>
<linearGradient id="paint0_linear_358_10973" x1="29.9852" y1="59.2524" x2="29.9852" y2="27.1482" gradientUnits="userSpaceOnUse">
<stop stop-color="white" stop-opacity="0.4"/>
<stop offset="1" stop-color="white" stop-opacity="0.8"/>
</linearGradient>
</defs>
</svg>
