<svg width="16" height="10" viewBox="0 0 16 10" fill="none" xmlns="http://www.w3.org/2000/svg">
<g id="video" clip-path="url(#clip0_358_11012)">
<path id="Vector" d="M9.17321 9.08028V9.08097H2.92664C1.64147 9.08097 0.6 8.0395 0.6 6.75434V1.85286C0.6 1.33758 1.01824 0.919336 1.53353 0.919336H8.3801C9.66526 0.919336 10.7067 1.96081 10.7067 3.24597V8.14675C10.7067 8.66255 10.2887 9.08028 9.77321 9.08028H9.17321ZM15.2675 8.40032L15.2673 8.40018L13.4174 7.04437V7.04378L13.1723 6.86398C12.9734 6.71817 12.8558 6.4862 12.8558 6.2397V3.76061C12.8558 3.51356 12.9731 3.28205 13.1718 3.13666L13.1721 3.13642L15.2673 1.60082L15.2675 1.60068C15.2863 1.58692 15.3001 1.58394 15.3102 1.58331C15.3228 1.58253 15.3387 1.58518 15.3549 1.5934C15.3711 1.60163 15.3826 1.61285 15.3894 1.62342C15.3949 1.63199 15.4007 1.64488 15.4007 1.66818V8.33282C15.4007 8.3558 15.395 8.36859 15.3895 8.37722C15.3826 8.38784 15.3711 8.39914 15.3547 8.40742C15.3384 8.4157 15.3225 8.41835 15.31 8.41758C15.2999 8.41696 15.2862 8.41401 15.2675 8.40032Z" stroke="#74787A" stroke-width="1.2"/>
</g>
<defs>
<clipPath id="clip0_358_11012">
<rect width="16" height="9.36164" fill="white" transform="translate(0 0.319336)"/>
</clipPath>
</defs>
</svg>
