<svg width="17" height="17" viewBox="0 0 17 17" fill="none" xmlns="http://www.w3.org/2000/svg">
<g id="Message circle">
<path id="Icon" d="M15.5 8.11112C15.5027 9.13768 15.2628 10.1504 14.8 11.0667C14.2512 12.1647 13.4076 13.0882 12.3636 13.7339C11.3195 14.3795 10.1164 14.7217 8.88888 14.7222C7.86231 14.7249 6.84964 14.4851 5.93333 14.0222L1.5 15.5L2.97778 11.0667C2.51494 10.1504 2.2751 9.13768 2.27778 8.11112C2.27825 6.8836 2.62047 5.68046 3.26611 4.63644C3.91175 3.59243 4.8353 2.74879 5.93333 2.20002C6.84964 1.73719 7.86231 1.49735 8.88888 1.50002H9.27777C10.8989 1.58946 12.4301 2.27372 13.5782 3.4218C14.7263 4.56987 15.4105 6.10108 15.5 7.72223V8.11112Z" stroke="#7B7E80" stroke-width="1.6" stroke-linecap="round" stroke-linejoin="round"/>
</g>
</svg>
