<svg width="21" height="21" viewBox="0 0 21 21" fill="none" xmlns="http://www.w3.org/2000/svg">
<g id="vuesax/bold/location">
<path id="Vector" d="M18.0425 7.39375C17.1237 3.35125 13.5975 1.53125 10.5 1.53125C10.5 1.53125 10.5 1.53125 10.4912 1.53125C7.40249 1.53125 3.86749 3.3425 2.94874 7.385C1.92499 11.9 4.68999 15.7238 7.19249 18.13C8.11999 19.0225 9.30999 19.4688 10.5 19.4688C11.69 19.4688 12.88 19.0225 13.7987 18.13C16.3012 15.7238 19.0662 11.9088 18.0425 7.39375ZM10.5 11.7775C8.97749 11.7775 7.74374 10.5438 7.74374 9.02125C7.74374 7.49875 8.97749 6.265 10.5 6.265C12.0225 6.265 13.2562 7.49875 13.2562 9.02125C13.2562 10.5438 12.0225 11.7775 10.5 11.7775Z" fill="#ACB0B3"/>
</g>
</svg>
