<svg width="40" height="40" viewBox="0 0 40 40" fill="none" xmlns="http://www.w3.org/2000/svg">
<g filter="url(#filter0_i_436_2462)">
<rect width="40" height="40" rx="6" fill="#FF8A00"/>
<g clip-path="url(#clip0_436_2462)">
<path d="M19.8607 7.16895C11.0637 7.16895 3.94141 12.5964 3.94141 19.2951C3.94141 23.1286 6.28189 26.5384 9.92375 28.7579V35.295L16.7838 31.1891C17.7825 31.3404 18.8115 31.4212 19.8607 31.4212C28.6476 31.4212 35.78 25.9937 35.78 19.2951C35.78 12.5964 28.6476 7.16895 19.8607 7.16895ZM19.8607 28.3543C15.2504 28.3543 11.437 24.894 10.872 20.435H9.45969L11.6186 17.0151L13.7775 20.435H12.5063C13.0612 24.0063 16.1381 26.7402 19.8607 26.7402C22.6249 26.7402 25.157 25.2169 26.4483 22.7755L27.8708 23.5321C26.297 26.5082 23.2201 28.3543 19.8607 28.3543ZM28.0927 21.5649L25.9338 18.145H27.205C26.6501 14.5737 23.5732 11.8398 19.8506 11.8398C17.0864 11.8398 14.5644 13.3631 13.263 15.8045L11.8405 15.0479C13.4244 12.0718 16.4912 10.2257 19.8506 10.2257C24.461 10.2257 28.2743 13.686 28.8393 18.145H30.2516L28.0927 21.5649Z" fill="url(#paint0_linear_436_2462)"/>
</g>
</g>
<defs>
<filter id="filter0_i_436_2462" x="0" y="-4" width="40" height="44" filterUnits="userSpaceOnUse" color-interpolation-filters="sRGB">
<feFlood flood-opacity="0" result="BackgroundImageFix"/>
<feBlend mode="normal" in="SourceGraphic" in2="BackgroundImageFix" result="shape"/>
<feColorMatrix in="SourceAlpha" type="matrix" values="0 0 0 0 0 0 0 0 0 0 0 0 0 0 0 0 0 0 127 0" result="hardAlpha"/>
<feOffset dy="-5"/>
<feGaussianBlur stdDeviation="2"/>
<feComposite in2="hardAlpha" operator="arithmetic" k2="-1" k3="1"/>
<feColorMatrix type="matrix" values="0 0 0 0 1 0 0 0 0 0.783333 0 0 0 0 0 0 0 0 0.4 0"/>
<feBlend mode="normal" in2="shape" result="effect1_innerShadow_436_2462"/>
</filter>
<linearGradient id="paint0_linear_436_2462" x1="19.8426" y1="52.8764" x2="19.8426" y2="18.147" gradientUnits="userSpaceOnUse">
<stop stop-color="white" stop-opacity="0.4"/>
<stop offset="1" stop-color="white" stop-opacity="0.8"/>
</linearGradient>
<clipPath id="clip0_436_2462">
<rect width="32" height="32" fill="white" transform="translate(3.86035 3.85986)"/>
</clipPath>
</defs>
</svg>
