<svg width="140" height="53" viewBox="0 0 140 53" fill="none" xmlns="http://www.w3.org/2000/svg">
<g clip-path="url(#clip0_93_13)">
<path d="M5.10816 0.262207V10.8513H10.48V0.262207H15.6154V26.7008H10.48V15.6449H5.10816V26.7008H0V0.262207H5.10816Z" fill="#0626A9"/>
<path d="M26.7451 20.6596L25.5789 26.7035H20.5985L26.3319 0.262207H32.4541L37.5649 26.7035H32.5846L31.47 20.6596H26.7478H26.7451ZM30.9996 16.6604L30.1433 11.1134C29.885 9.52458 29.5208 6.87936 29.287 5.12134H29.1592C28.8982 6.87936 28.5095 9.62832 28.2267 11.1789L27.2671 16.6631H31.0024L30.9996 16.6604Z" fill="#0626A9"/>
<path d="M42.8824 26.7008V0.262207H47.5774L51.6498 10.6165C52.4273 12.6612 53.6996 16.0353 54.4526 18.3529H54.5287C54.3738 15.5657 54.0367 10.9687 54.0367 6.09589V0.262207H58.525V26.7035H53.8301L49.8093 16.6604C48.9285 14.4192 47.7323 11.0861 47.1614 8.68925H47.0853C47.1614 11.359 47.3708 15.462 47.3708 20.777V26.7035H42.8824V26.7008Z" fill="#0626A9"/>
<path d="M68.4097 26.7008V16.5949L62.6219 0.262207H68.0943L69.8858 6.56543C70.3507 8.25793 70.8727 10.2125 71.2614 12.178H71.3403C71.6502 10.2507 72.0933 8.33437 72.5609 6.44804L74.1431 0.262207H79.4334L73.545 16.3874V26.7035H68.4097V26.7008Z" fill="#0626A9"/>
<path d="M86.594 20.6596L85.4278 26.7035H80.4474L86.1781 0.262207H92.3003L97.4356 26.7035H92.4552L91.3135 20.6596H86.5913H86.594ZM90.8486 16.6604L89.9922 11.1134C89.7068 9.52458 89.3697 6.87936 89.1087 5.12134H89.0054C88.7471 6.87936 88.3584 9.62832 88.0729 11.1789L87.1133 16.6631H90.8486V16.6604Z" fill="#0626A9"/>
<path d="M102.729 26.7008V0.262207H107.426L111.499 10.6165C112.276 12.6612 113.548 16.0353 114.299 18.3529H114.378C114.223 15.5657 113.858 10.9687 113.858 6.09589V0.262207H118.374V26.7035H113.679L109.631 16.6604C108.775 14.4192 107.581 11.0861 106.983 8.68925H106.932C107.01 11.359 107.217 15.462 107.217 20.777V26.7035H102.729V26.7008Z" fill="#0626A9"/>
<path d="M140 25.9989C138.885 26.4684 136.447 26.9352 134.528 26.9352C131.518 26.9352 129.262 26.0753 127.497 24.3036C125.241 22.1143 124.048 18.1942 124.099 13.6354C124.227 4.00995 129.702 -0.00292969 135.305 -0.00292969C137.276 -0.00292969 138.782 0.414737 139.587 0.791456L138.706 5.21927C137.953 4.86985 136.966 4.646 135.669 4.646C132.192 4.646 129.417 7.01551 129.417 13.9439C129.417 20.3017 131.882 22.5811 134.294 22.5811C134.734 22.5811 135.098 22.5538 135.305 22.4501V16.0677H132.945V11.8473H140V25.9934V25.9989Z" fill="#0626A9"/>
<path d="M0.350693 31.1201H2.13678V47.4173H0.350693V31.1201Z" fill="#0626A9"/>
<path d="M5.06466 40.9886C5.06466 36.9021 7.49776 34.7837 11.1189 34.7837C14.74 34.7837 17.1731 36.9021 17.1731 40.9886V47.4174H15.5093V40.9886C15.5093 37.9476 13.7722 36.3288 11.1162 36.3288C8.46013 36.3288 6.72297 37.9476 6.72297 40.9886V47.4174H5.05922V40.9886H5.06466Z" fill="#0626A9"/>
<path d="M19.6089 42.8835V30.7466H21.2727V35.1089H28.4959V36.6294H21.2727V42.8835C21.2727 45.1274 22.5123 46.1975 24.4235 46.1975C26.3346 46.1975 27.5743 45.152 27.5743 42.8835V42.6105H29.1864V42.8835C29.1864 46.1238 27.2508 47.7426 24.4208 47.7426C21.5907 47.7426 19.6062 46.1238 19.6062 42.8835H19.6089Z" fill="#0626A9"/>
<path d="M30.7767 41.2619C30.7767 37.5247 33.5062 34.7812 37.3774 34.7812C41.2486 34.7812 43.9291 37.522 43.9291 41.2619V41.8106H32.4894C32.7123 44.3767 34.6235 46.1975 37.3774 46.1975C39.313 46.1975 40.8028 45.4004 41.5966 43.9781H43.4071C42.4638 46.2466 40.2291 47.7398 37.3774 47.7398C33.5062 47.7398 30.7767 44.9991 30.7767 41.2619ZM42.1919 40.3146C41.795 37.8223 39.8594 36.3263 37.3774 36.3263C34.8953 36.3263 32.9108 37.896 32.5384 40.3146H42.1919Z" fill="#0626A9"/>
<path d="M45.8647 40.0414C45.8647 36.5035 47.9743 34.7837 51.0272 34.7837C54.0802 34.7837 56.1653 36.5035 56.1653 40.0659V40.2161H54.5287V40.0414C54.5287 37.4753 53.1151 36.3288 51.0299 36.3288C48.9448 36.3288 47.5312 37.4753 47.5312 40.0414V47.4174H45.8674V40.0414H45.8647Z" fill="#0626A9"/>
<path d="M57.3071 41.2619C57.3071 37.5247 60.0365 34.7812 63.9077 34.7812C67.0857 34.7812 69.4916 36.6266 70.212 39.3674H68.5238C67.8523 37.522 66.1424 36.3263 63.9077 36.3263C60.9798 36.3263 58.9953 38.4201 58.9953 41.2619C58.9953 44.1037 60.9798 46.1975 63.9077 46.1975C66.1424 46.1975 67.8523 45.0018 68.5238 43.1564H70.212C69.4916 45.8972 67.0857 47.7426 63.9077 47.7426C60.0365 47.7426 57.3071 45.0018 57.3071 41.2646V41.2619Z" fill="#0626A9"/>
<path d="M71.6991 41.2619C71.6991 37.5247 74.4285 34.7812 78.2997 34.7812C82.171 34.7812 84.9004 37.522 84.9004 41.2619C84.9004 45.0018 82.171 47.7398 78.2997 47.7398C74.4285 47.7398 71.6991 44.9991 71.6991 41.2619ZM83.2149 41.2619C83.2149 38.4201 81.2303 36.3263 78.2997 36.3263C75.3691 36.3263 73.3873 38.4201 73.3873 41.2619C73.3873 44.1037 75.3719 46.1975 78.2997 46.1975C81.2276 46.1975 83.2149 44.1037 83.2149 41.2619Z" fill="#0626A9"/>
<path d="M87.3117 29.7227H88.9755V47.4175H87.3117V29.7227Z" fill="#0626A9"/>
<path d="M92.3492 29.7227H94.013V47.4175H92.3492V29.7227Z" fill="#0626A9"/>
<path d="M96.4189 41.2619C96.4189 37.5247 99.1483 34.7812 103.02 34.7812C106.891 34.7812 109.571 37.522 109.571 41.2619V41.8106H98.1316C98.3545 44.3767 100.266 46.1975 103.02 46.1975C104.955 46.1975 106.445 45.4004 107.239 43.9781H109.049C108.106 46.2466 105.871 47.7398 103.02 47.7398C99.1483 47.7398 96.4189 44.9991 96.4189 41.2619ZM107.834 40.3146C107.437 37.8223 105.502 36.3263 103.02 36.3263C100.538 36.3263 98.553 37.896 98.1805 40.3146H107.834Z" fill="#0626A9"/>
<path d="M111.531 49.0392H113.22C113.888 50.7835 115.601 51.5315 117.686 51.5315C120.516 51.5315 122.525 50.112 122.525 46.4731V44.6796C121.582 46.5987 119.695 47.6715 117.363 47.6715C113.913 47.6715 111.009 45.2802 111.009 41.2673C111.009 37.5301 113.739 34.7866 117.61 34.7866C121.481 34.7866 124.186 37.4291 124.186 41.341V46.3994C124.186 51.1602 121.332 53.0029 117.683 53.0029C114.731 53.0029 112.371 51.7827 111.529 49.0419L111.531 49.0392ZM122.525 41.2646C122.525 38.4228 120.541 36.329 117.61 36.329C114.679 36.329 112.698 38.4228 112.698 41.2646C112.698 44.1063 114.682 46.1237 117.61 46.1237C120.538 46.1237 122.525 44.1063 122.525 41.2646Z" fill="#0626A9"/>
<path d="M126.127 41.2619C126.127 37.5247 128.857 34.7812 132.728 34.7812C136.599 34.7812 139.28 37.522 139.28 41.2619V41.8106H127.84C128.063 44.3767 129.974 46.1975 132.728 46.1975C134.663 46.1975 136.153 45.4004 136.947 43.9781H138.758C137.814 46.2466 135.58 47.7398 132.728 47.7398C128.857 47.7398 126.127 44.9991 126.127 41.2619ZM137.542 40.3146C137.146 37.8223 135.21 36.3263 132.728 36.3263C130.246 36.3263 128.261 37.896 127.889 40.3146H137.542Z" fill="#0626A9"/>
</g>
<defs>
<clipPath id="clip0_93_13">
<rect width="140" height="53" fill="white"/>
</clipPath>
</defs>
</svg>
