<svg width="16" height="18" viewBox="0 0 16 18" fill="none" xmlns="http://www.w3.org/2000/svg">
<path fill-rule="evenodd" clip-rule="evenodd" d="M5.24444 1.00015C5.24444 0.656508 4.96587 0.37793 4.62222 0.37793C4.27858 0.37793 4 0.656508 4 1.00015V1.97793H2.22222C0.994923 1.97793 0 2.97285 0 4.20015V7.40015V15.4002C0 16.6275 0.994923 17.6224 2.22222 17.6224H13.4222C14.6495 17.6224 15.6444 16.6275 15.6444 15.4002V7.40015V4.20015C15.6444 2.97285 14.6495 1.97793 13.4222 1.97793H11.6444V1.00015C11.6444 0.656508 11.3659 0.37793 11.0222 0.37793C10.6786 0.37793 10.4 0.656508 10.4 1.00015V1.97793H5.24444V1.00015ZM2.22222 3.22237H4V4.20015C4 4.5438 4.27858 4.82237 4.62222 4.82237C4.96587 4.82237 5.24444 4.5438 5.24444 4.20015V3.22237H10.4V4.20015C10.4 4.5438 10.6786 4.82237 11.0222 4.82237C11.3659 4.82237 11.6444 4.5438 11.6444 4.20015V3.22237H13.4222C13.9622 3.22237 14.4 3.66014 14.4 4.20015V6.77793H1.24444V4.20015C1.24444 3.66014 1.68221 3.22237 2.22222 3.22237ZM1.24444 8.02237H14.4V15.4002C14.4 15.9402 13.9622 16.3779 13.4222 16.3779H2.22222C1.68221 16.3779 1.24444 15.9402 1.24444 15.4002V8.02237ZM3.72232 11.5002C4.2746 11.5002 4.72232 11.0524 4.72232 10.5002C4.72232 9.94787 4.2746 9.50015 3.72232 9.50015C3.17004 9.50015 2.72232 9.94787 2.72232 10.5002C2.72232 11.0524 3.17004 11.5002 3.72232 11.5002ZM4.72232 13.5002C4.72232 14.0524 4.2746 14.5002 3.72232 14.5002C3.17004 14.5002 2.72232 14.0524 2.72232 13.5002C2.72232 12.9479 3.17004 12.5002 3.72232 12.5002C4.2746 12.5002 4.72232 12.9479 4.72232 13.5002ZM6.72232 11.5002C7.2746 11.5002 7.72232 11.0524 7.72232 10.5002C7.72232 9.94787 7.2746 9.50015 6.72232 9.50015C6.17003 9.50015 5.72232 9.94787 5.72232 10.5002C5.72232 11.0524 6.17003 11.5002 6.72232 11.5002Z" fill="#ACB0B3"/>
</svg>
