<svg width="22" height="22" viewBox="0 0 22 22" fill="none" xmlns="http://www.w3.org/2000/svg">
<g id="contents" clip-path="url(#clip0_392_15548)">
<g id="Vector">
<path d="M7.68397 11.3036C10.3844 11.3036 12.5681 13.4927 12.5681 16.1878V17.6844C12.5681 18.4141 11.9769 19 11.2526 19H4.11539C3.38569 19 2.7998 18.4088 2.7998 17.6844V16.1878C2.7998 13.4874 4.98889 11.3036 7.68397 11.3036Z" fill="white"/>
<path d="M14.8319 11.3036C14.1928 11.3036 13.5856 11.4314 13.0263 11.6498C14.0703 12.8748 14.6988 14.4567 14.6988 16.1878V17.6844C14.6988 18.1532 14.6029 18.5952 14.4378 19H18.3952C19.1249 19 19.7107 18.4088 19.7107 17.6844V16.1878C19.7107 13.4874 17.5217 11.3036 14.8266 11.3036H14.8319Z" fill="white"/>
<path d="M7.68394 3C5.71323 3 4.11003 4.59787 4.11003 6.57391C4.11003 8.54995 5.7079 10.1478 7.68394 10.1478C9.65997 10.1478 11.2578 8.54995 11.2578 6.57391C11.2578 4.59787 9.65997 3 7.68394 3Z" fill="white"/>
<path d="M14.8319 3C14.0063 3 13.2447 3.28229 12.6375 3.75633C13.1115 4.58722 13.3885 5.54594 13.3885 6.57391C13.3885 7.60187 13.1115 8.5606 12.6375 9.39149C13.2447 9.86553 14.001 10.1478 14.8319 10.1478C16.8026 10.1478 18.4058 8.54995 18.4058 6.57391C18.4058 4.59787 16.8026 3 14.8319 3Z" fill="white"/>
</g>
</g>
<defs>
<clipPath id="clip0_392_15548">
<rect width="22" height="22" fill="white"/>
</clipPath>
</defs>
</svg>
