<svg width="13" height="12" viewBox="0 0 13 12" fill="none" xmlns="http://www.w3.org/2000/svg">
<path id="Star 1" d="M6.04516 0.996225C6.22312 0.606439 6.77688 0.606439 6.95484 0.996225L8.20513 3.73472C8.27792 3.89416 8.42889 4.00385 8.60302 4.02381L11.5938 4.36666C12.0196 4.41546 12.1907 4.94211 11.875 5.23182L9.65685 7.26716C9.52771 7.38566 9.47004 7.56313 9.50487 7.73491L10.103 10.6853C10.1881 11.1052 9.74015 11.4307 9.36707 11.22L6.74591 9.73941C6.5933 9.6532 6.4067 9.6532 6.25409 9.73941L3.63293 11.22C3.25985 11.4307 2.81185 11.1052 2.89699 10.6853L3.49513 7.73491C3.52996 7.56313 3.47229 7.38566 3.34315 7.26716L1.12505 5.23182C0.809331 4.94211 0.98045 4.41546 1.40615 4.36666L4.39698 4.02381C4.57111 4.00385 4.72208 3.89416 4.79487 3.73472L6.04516 0.996225Z" fill="#0000C1"/>
</svg>
