<svg width="30" height="30" viewBox="0 0 30 30" fill="none" xmlns="http://www.w3.org/2000/svg">
<g id="edit">
<path id="union-1" fill-rule="evenodd" clip-rule="evenodd" d="M16.2144 7.77367C17.2459 6.74211 18.9184 6.74211 19.95 7.77367L21.8621 9.68574C22.8936 10.7173 22.8936 12.3898 21.8621 13.4214L14.0444 21.239H22.4847C22.971 21.239 23.3652 21.6332 23.3652 22.1195C23.3652 22.6058 22.971 23 22.4847 23H7.51624C7.02995 23 6.63574 22.6058 6.63574 22.1195V17.717C6.63574 17.4835 6.72851 17.2595 6.89363 17.0944L16.2144 7.77367ZM11.554 21.239L18.598 14.195L15.4407 11.0378L8.39673 18.0817V21.239H11.554ZM16.6859 9.79256L19.8432 12.9498L20.6169 12.1762C20.9607 11.8323 20.9607 11.2748 20.6169 10.9309L18.7048 9.01888C18.3609 8.67503 17.8034 8.67503 17.4596 9.01888L16.6859 9.79256Z" fill="white"/>
</g>
</svg>
