<svg width="10" height="10" viewBox="0 0 10 10" fill="none" xmlns="http://www.w3.org/2000/svg">
<path d="M1.11142 10C0.805861 10 0.544287 9.8912 0.326694 9.67361C0.109101 9.45602 0.000305176 9.19444 0.000305176 8.88889V1.11111C0.000305176 0.805556 0.109101 0.543982 0.326694 0.326389C0.544287 0.108796 0.805861 0 1.11142 0H8.88919C9.19475 0 9.45632 0.108796 9.67392 0.326389C9.89151 0.543982 10.0003 0.805556 10.0003 1.11111V8.88889C10.0003 9.19444 9.89151 9.45602 9.67392 9.67361C9.45632 9.8912 9.19475 10 8.88919 10H1.11142ZM1.11142 8.88889H8.88919V1.11111H1.11142V5V8.88889Z" fill="#74787A"/>
</svg>
