<svg xmlns="http://www.w3.org/2000/svg" width="60" height="60" viewBox="0 0 60 60" fill="none">
<path d="M30 55C43.8071 55 55 43.8071 55 30C55 16.1929 43.8071 5 30 5C16.1929 5 5 16.1929 5 30C5 43.8071 16.1929 55 30 55Z" fill="#5656FF"/>
<path fill-rule="evenodd" clip-rule="evenodd" d="M21.613 42H38.387C39.5573 42 40.5 41.1025 40.5 39.9884V20.0116C40.5 18.8975 39.5573 18 38.387 18H21.613C20.4427 18 19.5 18.8975 19.5 20.0116V39.9884C19.5 41.1025 20.4427 42 21.613 42ZM23.1429 27C23.1429 26.5266 23.5266 26.1429 24 26.1429H36C36.4734 26.1429 36.8571 26.5266 36.8571 27C36.8571 27.4734 36.4734 27.8571 36 27.8571H24C23.5266 27.8571 23.1429 27.4734 23.1429 27ZM23.1429 33C23.1429 32.5266 23.5266 32.1429 24 32.1429H31.5C31.9734 32.1429 32.3571 32.5266 32.3571 33C32.3571 33.4734 31.9734 33.8571 31.5 33.8571H24C23.5266 33.8571 23.1429 33.4734 23.1429 33Z" fill="url(#paint0_linear_308_1664)"/>
<defs>
<linearGradient id="paint0_linear_308_1664" x1="29.9881" y1="57.0022" x2="29.9881" y2="27.3676" gradientUnits="userSpaceOnUse">
<stop stop-color="white" stop-opacity="0.4"/>
<stop offset="1" stop-color="white" stop-opacity="0.8"/>
</linearGradient>
</defs>
</svg>