<svg xmlns="http://www.w3.org/2000/svg" width="16" height="10" viewBox="0 0 16 10" fill="none">
  <g clip-path="url(#clip0_307_1404)">
    <path d="M9.17321 9.08004V9.08073H2.92664C1.64147 9.08073 0.6 8.03925 0.6 6.75409V1.85262C0.6 1.33733 1.01824 0.919092 1.53353 0.919092H8.3801C9.66526 0.919092 10.7067 1.96057 10.7067 3.24573V8.14651C10.7067 8.66231 10.2887 9.08004 9.77321 9.08004H9.17321ZM15.2675 8.40008L15.2673 8.39994L13.4174 7.04413V7.04354L13.1723 6.86374C12.9734 6.71793 12.8558 6.48596 12.8558 6.23946V3.76036C12.8558 3.51331 12.9731 3.28181 13.1718 3.13641L13.1721 3.13618L15.2673 1.60058L15.2675 1.60043C15.2863 1.58667 15.3001 1.58369 15.3102 1.58306C15.3228 1.58228 15.3387 1.58493 15.3549 1.59316C15.3711 1.60138 15.3826 1.6126 15.3894 1.62317C15.3949 1.63175 15.4007 1.64464 15.4007 1.66793V8.33258C15.4007 8.35556 15.395 8.36835 15.3895 8.37698C15.3826 8.3876 15.3711 8.3989 15.3547 8.40718C15.3384 8.41546 15.3225 8.41811 15.31 8.41734C15.2999 8.41671 15.2862 8.41377 15.2675 8.40008Z" stroke="#ACB0B3" stroke-width="1.2"/>
  </g>
  <defs>
    <clipPath id="clip0_307_1404">
      <rect width="16" height="9.36164" fill="white" transform="translate(0 0.319092)"/>
    </clipPath>
  </defs>
</svg>