<svg width="26" height="26" viewBox="0 0 26 26" fill="none" xmlns="http://www.w3.org/2000/svg">
<path d="M24.375 12.3681C24.3793 14.0362 23.9896 15.6818 23.2375 17.1708C22.3457 18.9551 20.9748 20.4559 19.2783 21.5051C17.5818 22.5542 15.6266 23.1103 13.6319 23.1111C11.9638 23.1155 10.3182 22.7257 8.82916 21.9736L1.625 24.375L4.02639 17.1708C3.27429 15.6818 2.88454 14.0362 2.88889 12.3681C2.88966 10.3734 3.44577 8.41824 4.49493 6.72172C5.54409 5.02521 7.04487 3.65429 8.82916 2.76253C10.3182 2.01043 11.9638 1.62069 13.6319 1.62504H14.2639C16.8982 1.77037 19.3865 2.8823 21.2521 4.74792C23.1177 6.61354 24.2296 9.10175 24.375 11.7361V12.3681Z" stroke="#4B4D4E" stroke-width="1.6" stroke-linecap="round" stroke-linejoin="round"/>
</svg>
