<svg width="26" height="26" viewBox="0 0 26 26" fill="none" xmlns="http://www.w3.org/2000/svg">
<path d="M11.6801 15.5101C11.6801 15.5101 11.6401 15.3901 11.6401 15.3301V14.5901C11.6401 14.0101 11.7801 13.5501 12.0701 13.1901C12.3601 12.8401 12.7801 12.4601 13.3301 12.0701C13.8101 11.7201 14.1701 11.4101 14.4101 11.1301C14.6501 10.8501 14.7701 10.5001 14.7701 10.0801C14.7701 9.61014 14.6101 9.24014 14.2801 8.96014C13.9601 8.68014 13.5301 8.54014 13.0001 8.54014C12.4701 8.54014 12.0001 8.69014 11.6701 8.99014C11.3401 9.29014 11.1701 9.67014 11.1701 10.1401V10.5201C11.1701 10.6501 11.1001 10.7201 10.9501 10.7201L9.29008 10.6501C9.23008 10.6501 9.18008 10.6301 9.14008 10.5801C9.10008 10.5301 9.08008 10.4801 9.08008 10.4201V10.1501C9.08008 9.47014 9.25008 8.86014 9.58008 8.32014C9.92008 7.79014 10.3801 7.37014 10.9801 7.08014C11.5801 6.79014 12.2701 6.64014 13.0501 6.64014C14.2101 6.64014 15.1401 6.95014 15.8401 7.57014C16.5401 8.19014 16.8801 9.01014 16.8801 10.0301C16.8801 10.5601 16.7901 11.0101 16.6001 11.4001C16.4101 11.7801 16.2001 12.1001 15.9501 12.3401C15.7001 12.5801 15.3701 12.8501 14.9501 13.1501C14.5301 13.4501 14.2201 13.7101 14.0101 13.9301C13.8101 14.1501 13.7001 14.4301 13.7001 14.7501V15.3601C13.7001 15.4201 13.6801 15.4701 13.6401 15.5101C13.6001 15.5501 13.5501 15.5701 13.4901 15.5701H11.8301C11.7701 15.5701 11.7201 15.5501 11.6801 15.5101ZM11.7001 19.0501C11.4601 18.8101 11.3401 18.5001 11.3401 18.1301C11.3401 17.7601 11.4601 17.4501 11.7001 17.2201C11.9401 16.9901 12.2501 16.8701 12.6201 16.8701C12.9901 16.8701 13.2901 16.9901 13.5301 17.2201C13.7601 17.4501 13.8801 17.7601 13.8801 18.1301C13.8801 18.5001 13.7601 18.8101 13.5201 19.0501C13.2801 19.2901 12.9801 19.4101 12.6201 19.4101C12.2601 19.4101 11.9401 19.2901 11.7001 19.0501Z" fill="#4B4D4E"/>
<path d="M13 1.6C19.29 1.6 24.4 6.71 24.4 13C24.4 19.29 19.29 24.4 13 24.4C6.71 24.4 1.6 19.29 1.6 13C1.6 6.71 6.71 1.6 13 1.6ZM13 0C5.82 0 0 5.82 0 13C0 20.18 5.82 26 13 26C20.18 26 26 20.18 26 13C26 5.82 20.18 0 13 0Z" fill="#4B4D4E"/>
</svg>
