<svg width="26" height="26" viewBox="0 0 26 26" fill="none" xmlns="http://www.w3.org/2000/svg">
<path fill-rule="evenodd" clip-rule="evenodd" d="M22.6194 18.3728L22.7745 18.5202C23.0036 18.7878 23.1482 19.0971 23.2054 19.4199H2.62798C2.69656 19.0328 2.89082 18.6649 3.20606 18.3653L3.92476 17.6822L3.92847 17.6787C4.93982 16.7264 5.5092 15.4075 5.5092 14.0357V10.6411C5.5092 7.54642 7.67407 4.85668 10.7659 3.99123L11.9347 3.66409V2.45045C11.9347 2.06081 12.2997 1.6 12.9127 1.6C13.529 1.6 13.8908 2.05641 13.8908 2.45045V2.45049V2.45054V2.45058V2.45063V2.45067V2.45071V2.45076V2.4508V2.45085V2.4509V2.45094V2.45099V2.45103V2.45108V2.45113V2.45117V2.45122V2.45127V2.45131V2.45136V2.45141V2.45145V2.4515V2.45155V2.4516V2.45165V2.45169V2.45174V2.45179V2.45184V2.45189V2.45194V2.45198V2.45203V2.45208V2.45213V2.45218V2.45223V2.45228V2.45233V2.45238V2.45243V2.45248V2.45253V2.45258V2.45263V2.45268V2.45274V2.45279V2.45284V2.45289V2.45294V2.45299V2.45304V2.45309V2.45315V2.4532V2.45325V2.4533V2.45336V2.45341V2.45346V2.45351V2.45357V2.45362V2.45367V2.45372V2.45378V2.45383V2.45388V2.45394V2.45399V2.45405V2.4541V2.45415V2.45421V2.45426V2.45432V2.45437V2.45442V2.45448V2.45453V2.45459V2.45464V2.4547V2.45475V2.45481V2.45486V2.45492V2.45497V2.45503V2.45508V2.45514V2.45519V2.45525V2.45531V2.45536V2.45542V2.45547V2.45553V2.45559V2.45564V2.4557V2.45575V2.45581V2.45587V2.45592V2.45598V2.45604V2.45609V2.45615V2.45621V2.45626V2.45632V2.45638V2.45643V2.45649V2.45655V2.45661V2.45666V2.45672V2.45678V2.45683V2.45689V2.45695V2.45701V2.45706V2.45712V2.45718V2.45724V2.4573V2.45735V2.45741V2.45747V2.45753V2.45758V2.45764V2.4577V2.45776V2.45782V2.45788V2.45793V2.45799V2.45805V2.45811V2.45817V2.45822V2.45828V2.45834V2.4584V2.45846V2.45852V2.45857V2.45863V2.45869V2.45875V2.45881V2.45887V2.45892V2.45898V2.45904V2.4591V2.45916V2.45922V2.45928V2.45933V2.45939V2.45945V2.45951V2.45957V2.45963V2.45969V2.45974V2.4598V2.45986V2.45992V2.45998V2.46004V2.4601V2.46015V2.46021V2.46027V2.46033V2.46039V2.46045V2.4605V2.46056V2.46062V2.46068V2.46074V2.4608V2.46085V2.46091V2.46097V2.46103V2.46109V2.46115V2.4612V2.46126V2.46132V2.46138V2.46144V2.46149V2.46155V2.46161V2.46167V2.46173V2.46178V2.46184V2.4619V2.46196V2.46202V2.46207V2.46213V2.46219V2.46225V2.4623V2.46236V2.46242V2.46248V2.46253V2.46259V2.46265V2.4627V2.46276V2.46282V2.46288V2.46293V2.46299V2.46305V2.4631V2.46316V2.46322V2.46327V2.46333V2.46339V2.46344V2.4635V2.46355V2.46361V2.46367V2.46372V2.46378V2.46383V2.46389V2.46395V2.464V2.46406V2.46411V2.46417V2.46422V2.46428V2.46433V2.46439V2.46444V2.4645V2.46455V2.46461V2.46466V2.46472V2.46477V2.46483V2.46488V2.46494V2.46499V2.46504V2.4651V2.46515V2.4652V2.46526V2.46531V2.46537V2.46542V2.46547V2.46553V2.46558V2.46563V2.46568V2.46574V2.46579V2.46584V2.46589V2.46595V2.466V2.46605V2.4661V2.46615V2.46621V2.46626V2.46631V2.46636V2.46641V2.46646V2.46651V2.46656V2.46662V2.46667V2.46672V2.46677V2.46682V2.46687V2.46692V2.46697V2.46702V2.46707V2.46712V2.46716V2.46721V2.46726V2.46731V2.46736V2.46741V2.46746V2.46751V2.46755V2.4676V2.46765V2.4677V2.46774V2.46779V2.46784V2.46789V2.46793V2.46798V2.46803V2.46807V2.46812V2.46817V2.46821V2.46826V2.4683V2.46835V2.46839V2.46844V2.46848V2.46853V2.46857V2.46862V2.46866V2.46871V2.46875V2.4688V2.46884V2.46888V2.46893V2.46897V2.46901V2.46906V2.4691V2.46914V2.46918V2.46922V2.46927V2.46931V2.46935V2.46939V2.46943V2.46947V2.46951V2.46956V2.4696V2.46964V2.46968V2.46972V2.46976V2.46979V2.46983V2.46987V2.46991V2.46995V2.46999V2.47003V2.47007V2.4701V2.47014V2.47018V2.47022V2.47025V2.47029V2.47033V2.47036V2.4704V2.47043V2.47047V2.47051V2.47054V2.47058V2.47061V2.47065V2.47068V2.47072V2.47075V2.47078V2.47082V2.47085V2.47088V2.47092V2.47095V2.47098V2.47101V2.47105V2.47108V2.47111V2.47114V2.47117V2.4712V2.47123V2.47126V2.47129V2.47132V2.47135V2.47138V2.47141V2.47144V2.47147V2.4715V2.47153V2.47155V2.47158V2.47161V2.47164V2.47166V2.47169V2.47172V2.47174V2.47177V2.47179V2.47182V2.47184V2.47187V2.47189V2.47192V2.47194V2.47197V2.47199V2.47201V2.47204V2.47206V2.47208V2.4721V2.47212V2.47215V2.47217V2.47219V2.47221V2.47223V2.47225V2.47227V2.47229V2.47231V2.47233V2.47235V2.47237V2.47239V2.4724V2.47242V2.47244V2.47246V2.47247V2.47249V2.47251V2.47252V2.47254V2.47255V2.47257V2.47258V2.4726V2.47261V2.47263V2.47264V2.47265V2.47267V2.47268V2.47269V2.4727V2.47272V2.47273V2.47274V2.47275V2.47276V2.47277V2.47278V2.47279V2.4728V2.47281V2.47282V2.47283V2.47283V2.47284V2.47285V2.47286V2.47287V2.47289V2.4729V2.47291V2.47291V2.47292V2.47293V3.67007L15.0393 4.0079C18.1303 4.91714 20.3163 7.75917 20.3163 10.9333V14.0432C20.3163 15.422 20.8906 16.7296 21.8941 17.6834L22.6194 18.3728ZM24.8333 19.7385C24.8333 19.3333 24.7619 18.9363 24.6251 18.5619C24.4988 18.2162 24.3168 17.8899 24.0839 17.5942C24.0528 17.5547 24.0208 17.5157 23.9879 17.4774C23.9071 17.3832 23.821 17.2925 23.7296 17.2056L23.7217 17.2131L22.9964 16.5237C22.3026 15.8642 21.9163 14.9725 21.9163 14.0432V10.9333C21.9163 7.02162 19.2357 3.57451 15.4908 2.47293V2.45045C15.4908 1.09408 14.3318 0 12.9127 0C11.4936 0 10.3347 1.10158 10.3347 2.45045C6.61341 3.49208 3.9092 6.76683 3.9092 10.6411V14.0357C3.9092 14.965 3.52288 15.8642 2.82909 16.5162L2.10376 17.2056C1.3942 17.88 1 18.7868 1 19.7385V20.5778C1 20.8251 1.21287 21.0199 1.46516 21.0199H24.3682C24.6283 21.0199 24.8333 20.8176 24.8333 20.5778V19.7385ZM17.2503 22.75C17.2503 24.5426 15.55 26 13.4587 26C11.3673 26 9.66699 24.5426 9.66699 22.75H17.2503Z" fill="#4B4D4E"/>
</svg>
