<svg width="34" height="34" viewBox="0 0 34 34" fill="none" xmlns="http://www.w3.org/2000/svg">
<rect width="34" height="34" rx="10" fill="#0000C1"/>
<path fill-rule="evenodd" clip-rule="evenodd" d="M22.5423 5.3335V7.1535C25.6923 7.44516 27.2206 9.3235 27.4539 12.1118C27.4889 12.4385 27.2089 12.7302 26.8706 12.7302H7.13059C6.80393 12.7302 6.52393 12.4502 6.54726 12.1118C6.78059 9.3235 8.30893 7.44516 11.4589 7.1535V5.3335C11.4589 4.85516 11.8556 4.4585 12.3339 4.4585C12.8123 4.4585 13.2089 4.85516 13.2089 5.3335V7.0835H20.7923V5.3335C20.7923 4.85516 21.1889 4.4585 21.6673 4.4585C22.1456 4.4585 22.5423 4.85516 22.5423 5.3335ZM7.66667 14.4801H26.3333C26.975 14.4801 27.5 15.0051 27.5 15.6468V22.8334C27.5 26.3334 25.75 28.6668 21.6667 28.6668H12.3333C8.25 28.6668 6.5 26.3334 6.5 22.8334V15.6468C6.5 15.0051 7.025 14.4801 7.66667 14.4801ZM13.36 24.4901C13.5 24.4318 13.6283 24.3501 13.745 24.2451C13.955 24.0234 14.0833 23.7201 14.0833 23.4168C14.0833 23.1134 13.955 22.8101 13.745 22.5884C13.6283 22.4834 13.5 22.4018 13.36 22.3434C13.08 22.2268 12.7533 22.2268 12.4733 22.3434C12.3333 22.4018 12.205 22.4834 12.0883 22.5884C11.8783 22.8101 11.75 23.1134 11.75 23.4168C11.75 23.7201 11.8783 24.0234 12.0883 24.2451C12.205 24.3501 12.3333 24.4318 12.4733 24.4901C12.6133 24.5484 12.765 24.5834 12.9167 24.5834C13.0683 24.5834 13.22 24.5484 13.36 24.4901ZM13.745 20.1618C13.85 20.0451 13.9317 19.9168 13.99 19.7768C14.0483 19.6368 14.0833 19.4851 14.0833 19.3334C14.0833 19.1818 14.0483 19.0301 13.99 18.8901C13.9317 18.7501 13.85 18.6218 13.745 18.5051C13.6283 18.4001 13.5 18.3184 13.36 18.2601C13.08 18.1434 12.7533 18.1434 12.4733 18.2601C12.3333 18.3184 12.205 18.4001 12.0883 18.5051C11.9833 18.6218 11.9017 18.7501 11.8433 18.8901C11.785 19.0301 11.75 19.1818 11.75 19.3334C11.75 19.4851 11.785 19.6368 11.8433 19.7768C11.9017 19.9168 11.9833 20.0451 12.0883 20.1618C12.205 20.2668 12.3333 20.3484 12.4733 20.4068C12.6133 20.4651 12.765 20.5001 12.9167 20.5001C13.0683 20.5001 13.22 20.4651 13.36 20.4068C13.5 20.3484 13.6283 20.2668 13.745 20.1618ZM17.4433 20.4068C17.5833 20.3484 17.7117 20.2668 17.8283 20.1618C18.0383 19.9401 18.1667 19.6368 18.1667 19.3334C18.1667 19.0301 18.0383 18.7268 17.8283 18.5051C17.7117 18.4001 17.5833 18.3184 17.4433 18.2601C17.1633 18.1318 16.8367 18.1318 16.5567 18.2601C16.4167 18.3184 16.2883 18.4001 16.1717 18.5051C15.9617 18.7268 15.8333 19.0301 15.8333 19.3334C15.8333 19.6368 15.9617 19.9401 16.1717 20.1618C16.2883 20.2668 16.4167 20.3484 16.5567 20.4068C16.6967 20.4651 16.8483 20.5001 17 20.5001C17.1517 20.5001 17.3033 20.4651 17.4433 20.4068Z" fill="url(#paint0_linear_529_47019)"/>
<defs>
<linearGradient id="paint0_linear_529_47019" x1="16.9881" y1="43.7992" x2="16.9881" y2="13.9074" gradientUnits="userSpaceOnUse">
<stop stop-color="white" stop-opacity="0.4"/>
<stop offset="1" stop-color="white" stop-opacity="0.8"/>
</linearGradient>
</defs>
</svg>
