<svg width="34" height="34" viewBox="0 0 34 34" fill="none" xmlns="http://www.w3.org/2000/svg">
<rect width="34" height="34" rx="10" fill="#A299FF"/>
<path opacity="0.3" d="M17 32C25.2843 32 32 25.2843 32 17C32 8.71573 25.2843 2 17 2C8.71573 2 2 8.71573 2 17C2 25.2843 8.71573 32 17 32Z" fill="#AEFF00"/>
<path opacity="0.3" d="M16.9999 29.2714C23.7773 29.2714 29.2714 23.7773 29.2714 16.9999C29.2714 10.2226 23.7773 4.72852 16.9999 4.72852C10.2226 4.72852 4.72852 10.2226 4.72852 16.9999C4.72852 23.7773 10.2226 29.2714 16.9999 29.2714Z" fill="#AEFF00"/>
<path opacity="0.3" d="M17.0001 26.5429C22.2704 26.5429 26.5429 22.2705 26.5429 17.0001C26.5429 11.7297 22.2704 7.45728 17.0001 7.45728C11.7297 7.45728 7.45721 11.7297 7.45721 17.0001C7.45721 22.2705 11.7297 26.5429 17.0001 26.5429Z" fill="#AEFF00"/>
<path opacity="0.3" d="M17 23.8143C20.7634 23.8143 23.8142 20.7635 23.8142 17C23.8142 13.2366 20.7634 10.1858 17 10.1858C13.2366 10.1858 10.1857 13.2366 10.1857 17C10.1857 20.7635 13.2366 23.8143 17 23.8143Z" fill="#AEFF00"/>
<path opacity="0.4" d="M16.9999 21.0857C19.2564 21.0857 21.0856 19.2564 21.0856 17C21.0856 14.7435 19.2564 12.9143 16.9999 12.9143C14.7435 12.9143 12.9142 14.7435 12.9142 17C12.9142 19.2564 14.7435 21.0857 16.9999 21.0857Z" fill="#AEFF00"/>
<path d="M17 18.357C17.7495 18.357 18.3571 17.7494 18.3571 16.9999C18.3571 16.2504 17.7495 15.6428 17 15.6428C16.2505 15.6428 15.6429 16.2504 15.6429 16.9999C15.6429 17.7494 16.2505 18.357 17 18.357Z" fill="#AEFF00"/>
</svg>
