<svg width="34" height="34" viewBox="0 0 34 34" fill="none" xmlns="http://www.w3.org/2000/svg">
<rect width="34" height="34" rx="10" fill="#04CD00"/>
<g clip-path="url(#clip0_503_44465)">
<path d="M17.1483 19.4296C16.7517 19.4296 16.3595 19.3575 15.9899 19.2178L8.3724 16.3511V22.2152C8.3724 24.6898 12.3029 26.6956 17.1483 26.6956C21.9938 26.6956 25.9242 24.6898 25.9242 22.2152V16.3511L18.3067 19.2178C17.9326 19.3575 17.545 19.4296 17.1483 19.4296Z" fill="url(#paint0_linear_503_44465)"/>
<path d="M30.7065 12.2629L17.8288 7.42196C17.3871 7.25518 16.9003 7.25518 16.4631 7.42196L3.58543 12.2629C3.1978 12.4117 3.1978 12.9616 3.58543 13.1058L5.41995 13.7954C4.47339 15.4677 4.22098 17.2887 4.16689 18.3975L3.11666 20.9397C2.70649 21.9223 3.43218 23.0086 4.49593 23.0086H5.16303C6.22677 23.0086 6.95247 21.9268 6.54229 20.9397L5.5146 18.4651C5.56419 17.4509 5.79406 15.7607 6.69554 14.2777L16.4586 17.9513C16.9003 18.118 17.3871 18.118 17.8243 17.9513L30.702 13.1058C31.0896 12.957 31.0896 12.4071 30.702 12.2629H30.7065Z" fill="url(#paint1_linear_503_44465)"/>
</g>
<defs>
<linearGradient id="paint0_linear_503_44465" x1="17.1383" y1="33.1618" x2="17.1383" y2="20.3887" gradientUnits="userSpaceOnUse">
<stop stop-color="white" stop-opacity="0.4"/>
<stop offset="1" stop-color="white" stop-opacity="0.8"/>
</linearGradient>
<linearGradient id="paint1_linear_503_44465" x1="16.9806" y1="32.8298" x2="16.9806" y2="13.4294" gradientUnits="userSpaceOnUse">
<stop stop-color="white" stop-opacity="0.4"/>
<stop offset="1" stop-color="white" stop-opacity="0.8"/>
</linearGradient>
<clipPath id="clip0_503_44465">
<rect width="28" height="19.4089" fill="white" transform="translate(2.99993 7.29565)"/>
</clipPath>
</defs>
</svg>
