<svg width="34" height="34" viewBox="0 0 34 34" fill="none" xmlns="http://www.w3.org/2000/svg">
<rect width="34" height="34" rx="10" fill="#BD00FF"/>
<path fill-rule="evenodd" clip-rule="evenodd" d="M27.15 19.5484L27.8804 20.2426L27.8883 20.2351C28.6028 20.9142 28.9998 21.8273 28.9998 22.7857V23.6309C28.9998 23.8723 28.7934 24.0761 28.5314 24.0761H5.46821C5.21416 24.0761 4.9998 23.8799 4.9998 23.6309V22.7857C4.9998 21.8273 5.39676 20.9142 6.11128 20.2351L6.84168 19.5408C7.54032 18.8843 7.92934 17.9788 7.92934 17.0431V13.6247C7.92934 9.72333 10.6525 6.42568 14.3997 5.37676C14.3997 4.01846 15.5668 2.90918 16.9958 2.90918C18.4249 2.90918 19.5919 4.01091 19.5919 5.37676V5.3994C23.363 6.50868 26.0623 9.9799 26.0623 13.919V17.0506C26.0623 17.9863 26.4513 18.8843 27.15 19.5484ZM20.6362 26.0001C20.6362 27.8052 18.9239 29.2728 16.818 29.2728C14.712 29.2728 12.9998 27.8052 12.9998 26.0001H20.6362Z" fill="url(#paint0_linear_503_44387)"/>
<defs>
<linearGradient id="paint0_linear_503_44387" x1="16.9862" y1="45.7525" x2="16.9862" y2="13.1993" gradientUnits="userSpaceOnUse">
<stop stop-color="white" stop-opacity="0.4"/>
<stop offset="1" stop-color="white" stop-opacity="0.8"/>
</linearGradient>
</defs>
</svg>
