<svg width="34" height="34" viewBox="0 0 34 34" fill="none" xmlns="http://www.w3.org/2000/svg">
<rect width="34" height="34" rx="10" fill="#CF7000"/>
<g clip-path="url(#clip0_503_44472)">
<path d="M12.3521 17.3914C15.8641 17.3914 18.7041 20.2383 18.7041 23.7434V25.6898C18.7041 26.6388 17.9352 27.4008 16.9932 27.4008H7.71105C6.76206 27.4008 6.00009 26.6319 6.00009 25.6898V23.7434C6.00009 20.2314 8.84707 17.3914 12.3521 17.3914Z" fill="url(#paint0_linear_503_44472)"/>
<path d="M21.6482 17.3914C20.817 17.3914 20.0273 17.5576 19.3 17.8416C20.6577 19.4348 21.475 21.4921 21.475 23.7434V25.6898C21.475 26.2994 21.3504 26.8744 21.1356 27.4008H26.2823C27.2313 27.4008 27.9933 26.6319 27.9933 25.6898V23.7434C27.9933 20.2314 25.1463 17.3914 21.6413 17.3914H21.6482Z" fill="url(#paint1_linear_503_44472)"/>
<path d="M12.3521 6.59229C9.78911 6.59229 7.70409 8.67037 7.70409 11.2403C7.70409 13.8102 9.78218 15.8883 12.3521 15.8883C14.922 15.8883 17.0001 13.8102 17.0001 11.2403C17.0001 8.67037 14.922 6.59229 12.3521 6.59229Z" fill="url(#paint2_linear_503_44472)"/>
<path d="M21.6482 6.59229C20.5746 6.59229 19.584 6.95941 18.7943 7.57591C19.4108 8.65652 19.771 9.90337 19.771 11.2403C19.771 12.5772 19.4108 13.824 18.7943 14.9046C19.584 15.5211 20.5676 15.8883 21.6482 15.8883C24.2112 15.8883 26.2962 13.8102 26.2962 11.2403C26.2962 8.67037 24.2112 6.59229 21.6482 6.59229Z" fill="url(#paint3_linear_503_44472)"/>
<path d="M12.3521 15.8813C9.78911 15.8813 7.70409 13.8032 7.70409 11.2333C7.70409 8.66344 9.78911 6.59229 12.3521 6.59229C14.9151 6.59229 17.0001 8.67037 17.0001 11.2403C17.0001 13.8102 14.922 15.8883 12.3521 15.8883V15.8813Z" fill="url(#paint4_linear_503_44472)"/>
</g>
<defs>
<linearGradient id="paint0_linear_503_44472" x1="12.3449" y1="33.6576" x2="12.3449" y2="21.2982" gradientUnits="userSpaceOnUse">
<stop stop-color="white" stop-opacity="0.4"/>
<stop offset="1" stop-color="white" stop-opacity="0.8"/>
</linearGradient>
<linearGradient id="paint1_linear_503_44472" x1="23.6417" y1="33.6576" x2="23.6417" y2="21.2982" gradientUnits="userSpaceOnUse">
<stop stop-color="white" stop-opacity="0.4"/>
<stop offset="1" stop-color="white" stop-opacity="0.8"/>
</linearGradient>
<linearGradient id="paint2_linear_503_44472" x1="12.3468" y1="21.6991" x2="12.3468" y2="10.2206" gradientUnits="userSpaceOnUse">
<stop stop-color="white" stop-opacity="0.4"/>
<stop offset="1" stop-color="white" stop-opacity="0.8"/>
</linearGradient>
<linearGradient id="paint3_linear_503_44472" x1="22.541" y1="21.6991" x2="22.541" y2="10.2206" gradientUnits="userSpaceOnUse">
<stop stop-color="white" stop-opacity="0.4"/>
<stop offset="1" stop-color="white" stop-opacity="0.8"/>
</linearGradient>
<linearGradient id="paint4_linear_503_44472" x1="12.3468" y1="21.6991" x2="12.3468" y2="10.2206" gradientUnits="userSpaceOnUse">
<stop stop-color="white" stop-opacity="0.4"/>
<stop offset="1" stop-color="white" stop-opacity="0.8"/>
</linearGradient>
<clipPath id="clip0_503_44472">
<rect width="22" height="20.8155" fill="white" transform="translate(6 6.59229)"/>
</clipPath>
</defs>
</svg>
