<svg width="34" height="34" viewBox="0 0 34 34" fill="none" xmlns="http://www.w3.org/2000/svg">
<rect width="34" height="34" rx="10" fill="#009A19"/>
<circle cx="17" cy="17" r="13" fill="white" fill-opacity="0.49"/>
<path d="M15.7001 19.4801C15.7001 19.4801 15.6401 19.3901 15.6401 19.3301V18.5901C15.6401 18.0101 15.7801 17.5501 16.0701 17.1901C16.3601 16.8401 16.7801 16.4601 17.3301 16.0701C17.8101 15.7201 18.1701 15.4101 18.4101 15.1301C18.6501 14.8501 18.7701 14.5001 18.7701 14.0801C18.7701 13.6101 18.6101 13.2401 18.2801 12.9601C17.9601 12.6801 17.5301 12.5401 17.0001 12.5401C16.4701 12.5401 16.0001 12.6901 15.6701 12.9901C15.3401 13.2901 15.1701 13.6701 15.1701 14.1401V14.5201C15.1701 14.6501 15.1001 14.7201 14.9501 14.7201L13.2901 14.6501C13.2301 14.6501 13.1801 14.6301 13.1401 14.5801C13.1001 14.5301 13.0801 14.4801 13.0801 14.4201V14.1501C13.0801 13.4701 13.2501 12.8601 13.5801 12.3201C13.9201 11.7901 14.3801 11.3701 14.9801 11.0801C15.5801 10.7901 16.2701 10.6401 17.0501 10.6401C18.2101 10.6401 19.1401 10.9501 19.8401 11.5701C20.5401 12.1901 20.8801 13.0101 20.8801 14.0301C20.8801 14.5601 20.7901 15.0101 20.6001 15.4001C20.4101 15.7801 20.2001 16.1001 19.9501 16.3401C19.7001 16.5801 19.3701 16.8501 18.9501 17.1501C18.5301 17.4501 18.2201 17.7101 18.0101 17.9301C17.8101 18.1501 17.7001 18.4301 17.7001 18.7501V19.3601C17.7001 19.4201 17.6801 19.4701 17.6401 19.5101C17.6001 19.5501 17.5501 19.5701 17.4901 19.5701H15.8301C15.7701 19.5701 15.7201 19.5501 15.6801 19.5101L15.7001 19.4801ZM15.7001 23.0501C15.4601 22.8101 15.3401 22.5001 15.3401 22.1301C15.3401 21.7601 15.4601 21.4501 15.7001 21.2201C15.9401 20.9901 16.2501 20.8701 16.6201 20.8701C16.9901 20.8701 17.2901 20.9901 17.5301 21.2201C17.7601 21.4501 17.8801 21.7601 17.8801 22.1301C17.8801 22.5001 17.7601 22.8101 17.5201 23.0501C17.2801 23.2901 16.9801 23.4101 16.6201 23.4101C16.2601 23.4101 15.9401 23.2901 15.7001 23.0501Z" fill="white"/>
</svg>
