<svg width="34" height="34" viewBox="0 0 34 34" fill="none" xmlns="http://www.w3.org/2000/svg">
<rect width="34" height="34" rx="10" fill="#596577"/>
<path fill-rule="evenodd" clip-rule="evenodd" d="M25.6107 21.6807C25.5412 21.2973 25.5881 20.9019 25.7455 20.5455C25.8953 20.1959 26.144 19.8978 26.4611 19.6878C26.7782 19.4778 27.1497 19.3652 27.53 19.3636H27.6364C28.2632 19.3636 28.8644 19.1146 29.3077 18.6713C29.751 18.2281 30 17.6269 30 17C30 16.3731 29.751 15.7719 29.3077 15.3287C28.8644 14.8854 28.2632 14.6364 27.6364 14.6364H27.4355C27.0552 14.6348 26.6836 14.5222 26.3665 14.3122C26.0495 14.1022 25.8007 13.8041 25.6509 13.4545V13.36C25.4936 13.0035 25.4467 12.6081 25.5162 12.2248C25.5857 11.8414 25.7685 11.4876 26.0409 11.2091L26.1118 11.1382C26.3316 10.9187 26.5059 10.658 26.6249 10.371C26.7438 10.0841 26.805 9.77653 26.805 9.46591C26.805 9.15529 26.7438 8.84772 26.6249 8.56078C26.5059 8.27384 26.3316 8.01315 26.1118 7.79364C25.8923 7.57387 25.6316 7.39953 25.3447 7.28059C25.0577 7.16164 24.7502 7.10041 24.4395 7.10041C24.1289 7.10041 23.8214 7.16164 23.5344 7.28059C23.2475 7.39953 22.9868 7.57387 22.7673 7.79364L22.6964 7.86455C22.4178 8.137 22.0641 8.31976 21.6807 8.38928C21.2973 8.45879 20.9019 8.41186 20.5455 8.25455C20.1959 8.10473 19.8978 7.85598 19.6878 7.53891C19.4778 7.22184 19.3652 6.85029 19.3636 6.47V6.36364C19.3636 5.73676 19.1146 5.13556 18.6713 4.69229C18.2281 4.24903 17.6269 4 17 4C16.3731 4 15.7719 4.24903 15.3287 4.69229C14.8854 5.13556 14.6364 5.73676 14.6364 6.36364V6.56455C14.6348 6.94484 14.5222 7.31639 14.3122 7.63346C14.1022 7.95053 13.8041 8.19928 13.4545 8.34909H13.36C13.0035 8.50641 12.6081 8.55334 12.2248 8.48382C11.8414 8.41431 11.4876 8.23154 11.2091 7.95909L11.1382 7.88818C10.9187 7.66842 10.658 7.49408 10.371 7.37513C10.0841 7.25618 9.77653 7.19496 9.46591 7.19496C9.15529 7.19496 8.84772 7.25618 8.56078 7.37513C8.27384 7.49408 8.01315 7.66842 7.79364 7.88818C7.57387 8.1077 7.39953 8.36838 7.28059 8.65532C7.16164 8.94226 7.10041 9.24984 7.10041 9.56045C7.10041 9.87107 7.16164 10.1786 7.28059 10.4656C7.39953 10.7525 7.57387 11.0132 7.79364 11.2327L7.86455 11.3036C8.137 11.5822 8.31976 11.9359 8.38928 12.3193C8.45879 12.7027 8.41186 13.0981 8.25455 13.4545C8.11948 13.8218 7.87706 14.1399 7.55881 14.3675C7.24055 14.5951 6.86118 14.7218 6.47 14.7309H6.36364C5.73676 14.7309 5.13556 14.9799 4.69229 15.4232C4.24903 15.8665 4 16.4677 4 17.0945C4 17.7214 4.24903 18.3226 4.69229 18.7659C5.13556 19.2092 5.73676 19.4582 6.36364 19.4582H6.56455C6.94484 19.4597 7.31639 19.5724 7.63346 19.7824C7.95053 19.9923 8.19928 20.2905 8.34909 20.64C8.50641 20.9965 8.55334 21.3919 8.48382 21.7752C8.41431 22.1586 8.23154 22.5124 7.95909 22.7909L7.88818 22.8618C7.66842 23.0813 7.49408 23.342 7.37513 23.629C7.25618 23.9159 7.19496 24.2235 7.19496 24.5341C7.19496 24.8447 7.25618 25.1523 7.37513 25.4392C7.49408 25.7262 7.66842 25.9868 7.88818 26.2064C8.1077 26.4261 8.36838 26.6005 8.65532 26.7194C8.94226 26.8384 9.24984 26.8996 9.56045 26.8996C9.87107 26.8996 10.1786 26.8384 10.4656 26.7194C10.7525 26.6005 11.0132 26.4261 11.2327 26.2064L11.3036 26.1355C11.5822 25.863 11.9359 25.6802 12.3193 25.6107C12.7027 25.5412 13.0981 25.5881 13.4545 25.7455C13.8218 25.8805 14.1399 26.1229 14.3675 26.4412C14.5951 26.7594 14.7218 27.1388 14.7309 27.53V27.6364C14.7309 28.2632 14.9799 28.8644 15.4232 29.3077C15.8665 29.751 16.4677 30 17.0945 30C17.7214 30 18.3226 29.751 18.7659 29.3077C19.2092 28.8644 19.4582 28.2632 19.4582 27.6364V27.4355C19.4597 27.0552 19.5724 26.6836 19.7824 26.3665C19.9923 26.0495 20.2905 25.8007 20.64 25.6509C20.9965 25.4936 21.3919 25.4467 21.7752 25.5162C22.1586 25.5857 22.5124 25.7685 22.7909 26.0409L22.8618 26.1118C23.0813 26.3316 23.342 26.5059 23.629 26.6249C23.9159 26.7438 24.2235 26.805 24.5341 26.805C24.8447 26.805 25.1523 26.7438 25.4392 26.6249C25.7262 26.5059 25.9868 26.3316 26.2064 26.1118C26.4261 25.8923 26.6005 25.6316 26.7194 25.3447C26.8384 25.0577 26.8996 24.7502 26.8996 24.4395C26.8996 24.1289 26.8384 23.8214 26.7194 23.5344C26.6005 23.2475 26.4261 22.9868 26.2064 22.7673L26.1355 22.6964C25.863 22.4178 25.6802 22.0641 25.6107 21.6807ZM17 21C19.2091 21 21 19.2091 21 17C21 14.7909 19.2091 13 17 13C14.7909 13 13 14.7909 13 17C13 19.2091 14.7909 21 17 21Z" fill="url(#paint0_angular_529_47126)"/>
<defs>
<radialGradient id="paint0_angular_529_47126" cx="0" cy="0" r="1" gradientUnits="userSpaceOnUse" gradientTransform="translate(17 17) rotate(-90) scale(13)">
<stop stop-color="white"/>
<stop offset="1" stop-color="#71BBFF"/>
</radialGradient>
</defs>
</svg>
