<svg width="34" height="34" viewBox="0 0 34 34" fill="none" xmlns="http://www.w3.org/2000/svg">
<rect width="34" height="34" rx="10" fill="#FBFF96"/>
<path opacity="0.8" d="M11.6661 27.6662C17.5568 27.6662 22.3322 22.8908 22.3322 17.0001C22.3322 11.1094 17.5568 6.33398 11.6661 6.33398C5.77538 6.33398 1 11.1094 1 17.0001C1 22.8908 5.77538 27.6662 11.6661 27.6662Z" fill="#65FF93"/>
<path d="M22.3339 27.6662C28.2246 27.6662 33 22.8908 33 17.0001C33 11.1094 28.2246 6.33398 22.3339 6.33398C16.4432 6.33398 11.6678 11.1094 11.6678 17.0001C11.6678 22.8908 16.4432 27.6662 22.3339 27.6662Z" fill="#EFD77C"/>
<path d="M22.3339 16.9985C22.3339 13.0516 20.1886 9.60685 17 7.76147C13.8132 9.60685 11.6661 13.0499 11.6661 16.9985C11.6661 20.9471 13.8115 24.3901 17 26.2355C20.1869 24.3901 22.3339 20.9471 22.3339 16.9985Z" fill="url(#paint0_linear_529_47143)"/>
<defs>
<linearGradient id="paint0_linear_529_47143" x1="11.4369" y1="16.9985" x2="22.435" y2="16.9985" gradientUnits="userSpaceOnUse">
<stop stop-color="#FFD978"/>
<stop offset="1" stop-color="#8AFF98"/>
</linearGradient>
</defs>
</svg>
